<svg id="Layer_1" data-name="Layer 1" xmlns="http://www.w3.org/2000/svg" xmlns:xlink="http://www.w3.org/1999/xlink" viewBox="0 0 433 526"><defs><style>.cls-1{fill:url(#linear-gradient);}.cls-2{fill:url(#linear-gradient-2);}.cls-3{fill:url(#linear-gradient-3);}.cls-4{fill:url(#linear-gradient-4);}.cls-5{fill:url(#linear-gradient-5);}.cls-6{fill:url(#linear-gradient-6);}.cls-7{fill:url(#linear-gradient-7);}.cls-8{fill:url(#linear-gradient-8);}</style><linearGradient id="linear-gradient" x1="-1" y1="263.07" x2="359.47" y2="263.07" gradientUnits="userSpaceOnUse"><stop offset="0" stop-color="#c14e0e"/><stop offset="0.16" stop-color="#c14e0e" stop-opacity="0.85"/><stop offset="0.51" stop-color="#c14e0e" stop-opacity="0.48"/><stop offset="0.67" stop-color="#c14e0e" stop-opacity="0.3"/><stop offset="0.71" stop-color="#c14e0e" stop-opacity="0.33"/><stop offset="0.78" stop-color="#c14e0e" stop-opacity="0.42"/><stop offset="0.85" stop-color="#c14e0e" stop-opacity="0.57"/><stop offset="0.93" stop-color="#c14e0e" stop-opacity="0.78"/><stop offset="1" stop-color="#c14e0e"/></linearGradient><linearGradient id="linear-gradient-2" y1="294.42" x2="328.38" y2="294.42" xlink:href="#linear-gradient"/><linearGradient id="linear-gradient-3" y1="302.73" x2="316.72" y2="302.73" xlink:href="#linear-gradient"/><linearGradient id="linear-gradient-4" y1="308.01" x2="312.2" y2="308.01" xlink:href="#linear-gradient"/><linearGradient id="linear-gradient-5" y1="313.16" x2="307.68" y2="313.16" xlink:href="#linear-gradient"/><linearGradient id="linear-gradient-6" y1="318.23" x2="303.17" y2="318.23" xlink:href="#linear-gradient"/><linearGradient id="linear-gradient-7" y1="323.21" x2="298.65" y2="323.21" xlink:href="#linear-gradient"/><linearGradient id="linear-gradient-8" y1="328.08" x2="294.13" y2="328.08" xlink:href="#linear-gradient"/></defs><path class="cls-1" d="M309.33,212.14c-44.7-41.25-97.48-63.69-148.51-85.39-42.11-17.9-81.88-34.81-113.2-60.9C25.44,47.38,9.48,25.93-1,.15V2.76C9.55,27.7,25.31,48.57,47,66.62c31.43,26.18,71.27,43.12,113.45,61.05,51,21.67,103.65,44.07,148.22,85.21,34,31.39,50.31,72.75,49.81,126.43C358,390.55,342.44,452,311.14,526h1.08c31.24-73.95,46.76-135.4,47.24-186.68C360,285.34,343.56,243.74,309.33,212.14Z"/><path class="cls-2" d="M278.24,225.75c-44.7-41.25-97.48-63.69-148.51-85.39-42.11-17.9-81.88-34.81-113.21-60.9A183.89,183.89,0,0,1-1,62.83V64.3A186,186,0,0,0,15.88,80.23c31.44,26.18,71.28,43.12,113.45,61.05,51,21.67,103.65,44.07,148.23,85.21,34,31.39,50.31,72.75,49.81,126.43C326.92,401,313.22,458,285.69,526h1.08c27.48-67.92,41.15-125,41.6-173.07C328.87,299,312.47,257.35,278.24,225.75Z"/><path class="cls-3" d="M266.58,230.86c-44.7-41.26-97.48-63.7-148.51-85.4C76,127.56,36.19,110.65,4.86,84.56q-3-2.5-5.86-5.09v1.34c1.71,1.52,3.44,3,5.22,4.52,31.44,26.18,71.28,43.12,113.46,61.05,50.95,21.67,103.64,44.07,148.22,85.21,34,31.39,50.31,72.75,49.81,126.43-.44,46.86-13.48,102.26-39.64,168h1.07c26.11-65.68,39.13-121.08,39.57-168C317.21,304.05,300.81,262.45,266.58,230.86Z"/><path class="cls-4" d="M262.06,237.46c-44.7-41.25-97.48-63.69-148.51-85.39C71.44,134.17,31.67,117.26.35,91.17-.11,90.79-.55,90.41-1,90v1.32l.71.6C31.14,118.12,71,135.06,113.16,153c51,21.67,103.65,44.07,148.22,85.21,34,31.39,50.31,72.75,49.81,126.43-.42,45.28-12.61,98.54-37,161.37h1.07c24.38-62.79,36.55-116,37-161.36C312.69,310.66,296.29,269.06,262.06,237.46Z"/><path class="cls-5" d="M257.54,244.07c-44.7-41.25-97.47-63.69-148.51-85.39C68.32,141.37,29.82,125-1,100.32v1.28c30.82,24.46,69.14,40.78,109.64,58,51,21.67,103.65,44.07,148.22,85.21,34,31.39,50.31,72.75,49.81,126.43-.4,43.68-11.76,94.79-34.49,154.76h1.06c22.69-59.93,34-111,34.43-154.75C308.18,317.27,291.78,275.67,257.54,244.07Z"/><path class="cls-6" d="M253,250.68c-44.7-41.25-97.47-63.69-148.51-85.39C65.77,148.82,29,133.17-1,110.45v1.25c30,22.54,66.58,38.12,105.12,54.51,51,21.67,103.65,44.07,148.23,85.21,34,31.39,50.3,72.74,49.81,126.43-.39,42.07-10.94,91-32,148.15h1.06c21-57.09,31.56-106,32-148.14C303.66,323.88,287.26,282.28,253,250.68Z"/><path class="cls-7" d="M248.51,257.29C203.81,216,151,193.6,100,171.9,63.18,156.25,28.16,141.35-1,120.42v1.22c29.13,20.78,64,35.61,100.61,51.18,51,21.66,103.64,44.07,148.22,85.2,34,31.4,50.31,72.75,49.81,126.44C297.26,424.89,287.5,471.7,268,526h1.06c19.44-54.27,29.18-101.07,29.56-141.53C299.14,330.48,282.74,288.88,248.51,257.29Z"/><path class="cls-8" d="M244,263.9c-44.7-41.26-97.48-63.69-148.51-85.39-34.94-14.86-68.25-29-96.48-48.34v1.21c28.18,19.16,61.34,33.27,96.09,48.05,51,21.66,103.65,44.07,148.22,85.2,34,31.39,50.31,72.75,49.81,126.43-.36,38.79-9.37,83.44-27.29,134.94h1.06c17.88-51.47,26.87-96.11,27.23-134.93C294.62,337.09,278.22,295.49,244,263.9Z"/></svg>