<svg id="Layer_1" data-name="Layer 1" xmlns="http://www.w3.org/2000/svg" viewBox="0 0 1535 662"><defs><style>.cls-1{fill:none;stroke:#c14e0e;stroke-miterlimit:10;}</style></defs><path class="cls-1" d="M-49.75,592.42C113.5,592.42,360.5,290.5,613.5,290.5S1311,263.21,1311-139.64"/><path class="cls-1" d="M-42,589.76c163.12,2.12,413.85-296.37,666.66-293.09S1322,278.46,1327.26-124.09"/><path class="cls-1" d="M-34.22,587.1c163,4.23,417.47-290.82,670.08-284.25S1333,293.7,1343.49-108.54"/><path class="cls-1" d="M-26.45,584.44C136.43,590.79,394.62,299.17,647,309s697-.07,712.69-402"/><path class="cls-1" d="M-18.68,581.78C144.08,590.25,406,302.06,658.22,315.19s696.83,9,717.74-392.63"/><path class="cls-1" d="M-10.91,579.11C151.72,589.7,417.37,305,669.41,321.37s696.65,18.06,722.78-383.26"/><path class="cls-1" d="M-3.14,576.45c162.5,12.71,431.88-268.61,683.73-248.91s696.47,27.14,727.83-373.88"/><path class="cls-1" d="M4.63,573.79c162.38,14.83,435.48-263,687.14-240.08s696.3,36.21,732.88-364.5"/><path class="cls-1" d="M12.39,571.13C174.65,588.07,451.49,313.63,703,339.89s696.12,45.28,737.94-355.13"/><path class="cls-1" d="M20.16,568.47c162.14,19.06,442.7-252,694-222.41s695.95,54.35,743-345.75"/></svg>