<svg id="Layer_1" data-name="Layer 1" xmlns="http://www.w3.org/2000/svg" viewBox="0 0 1285 2965"><defs><style>.cls-1{fill:none;stroke:#c14e0e;stroke-miterlimit:10;}</style></defs><path class="cls-1" d="M51.55-26.61C501.78,102,674.88,592.63,696.65,1401s600.4,1552.55,600.4,1552.55"/><path class="cls-1" d="M122.46-73.69C570,64.92,733.41,559.33,739.34,1368.2S1309.09,2934,1309.09,2934"/><path class="cls-1" d="M149.5-80.81c446.28,142.38,605.88,638,605.65,1446.72S1312.76,2936.1,1312.76,2936.1"/><path class="cls-1" d="M176.53-87.93C621.57,58.22,777.34,555.12,771,1363.62S1316.43,2938.2,1316.43,2938.2"/><path class="cls-1" d="M203.57-95.06C647.37,54.86,799.3,553,786.78,1361.33s533.32,1579,533.32,1579"/><path class="cls-1" d="M230.6-102.18C673.16,51.51,821.27,550.91,802.6,1359s521.17,1583.38,521.17,1583.38"/><path class="cls-1" d="M257.64-109.31C699,48.16,843.23,548.81,818.41,1356.75s509,1587.78,509,1587.78"/><path class="cls-1" d="M284.67-116.43C724.74,44.8,865.2,546.7,834.22,1354.46s496.9,1592.18,496.9,1592.18"/><path class="cls-1" d="M311.71-123.56C750.54,41.45,887.16,544.6,850,1352.17s484.75,1596.58,484.75,1596.58"/><path class="cls-1" d="M338.75-130.68C776.33,38.1,909.13,542.49,865.85,1349.89s472.61,1601,472.61,1601"/><path class="cls-1" d="M365.78-137.81C802.12,34.74,931.09,540.39,881.67,1347.6S1342.13,2953,1342.13,2953"/><path class="cls-1" d="M392.82-144.93C827.91,31.39,953.06,538.28,897.48,1345.31S1345.8,2955.08,1345.8,2955.08"/><path class="cls-1" d="M419.85-152.06C853.7,28,975,536.18,913.29,1343s436.18,1614.17,436.18,1614.17"/></svg>