<svg id="Layer_1" data-name="Layer 1" xmlns="http://www.w3.org/2000/svg" viewBox="0 0 1029 1288"><defs><style>.cls-1{fill:none;stroke:#c14e0e;stroke-miterlimit:10;}</style></defs><path class="cls-1" d="M-151.47,99c282.79.51,554.31,220.9,554.31,568.05s153.27,399.59,302.34,436.76C866.88,1144.13,1054,1202,1054,1202"/><path class="cls-1" d="M-133,85.5C156.51,86,434.45,305.7,434.45,651.74s156.89,398.33,309.48,435.38C909.46,1127.32,1101,1185,1101,1185"/><path class="cls-1" d="M-121.53,79.32c289.44,2.15,566.1,223.39,564.14,569.39s154.62,399.16,307,437.08c165.28,41.13,356.47,99.89,356.47,99.89"/><path class="cls-1" d="M-110.08,73.15c289.4,3.79,564.78,226.57,560.85,572.53s152.34,400,304.47,438.77c165,42.06,355.87,101.9,355.87,101.9"/><path class="cls-1" d="M-98.64,67C190.72,72.4,464.82,296.73,458.94,642.64s150.06,400.84,302,440.48c164.78,43,355.27,103.91,355.27,103.91"/><path class="cls-1" d="M-87.2,60.8c289.33,7.06,562.14,233,554.3,578.81s147.78,401.68,299.45,442.17c164.54,43.93,354.67,105.92,354.67,105.92"/><path class="cls-1" d="M-75.75,54.62c289.28,8.71,560.82,236.14,551,582s145.51,402.51,297,443.86c164.28,44.87,354.07,107.94,354.07,107.94"/><path class="cls-1" d="M-64.31,48.45c289.25,10.34,559.5,239.32,547.74,585.1s143.22,403.35,294.44,445.56c164,45.79,353.46,109.94,353.46,109.94"/><path class="cls-1" d="M-52.86,42.27c289.2,12,558.18,242.51,544.45,588.24s141,404.19,291.93,447.26c163.79,46.73,352.87,112,352.87,112"/><path class="cls-1" d="M-41.42,36.1C247.74,49.72,515.44,281.79,499.75,627.48s138.68,405,289.43,449c163.54,47.66,352.26,114,352.26,114"/></svg>