<svg id="Layer_1" data-name="Layer 1" xmlns="http://www.w3.org/2000/svg" xmlns:xlink="http://www.w3.org/1999/xlink" viewBox="0 0 1124 609"><defs><style>.cls-1{fill:url(#linear-gradient);}.cls-2{fill:url(#linear-gradient-2);}.cls-3{fill:url(#linear-gradient-3);}.cls-4{fill:url(#linear-gradient-4);}.cls-5{fill:url(#linear-gradient-5);}.cls-6{fill:url(#linear-gradient-6);}.cls-7{fill:url(#linear-gradient-7);}.cls-8{fill:url(#linear-gradient-8);}.cls-9{fill:url(#linear-gradient-9);}.cls-10{fill:url(#linear-gradient-10);}</style><linearGradient id="linear-gradient" x1="16.96" y1="385.93" x2="1125" y2="385.93" gradientUnits="userSpaceOnUse"><stop offset="0" stop-color="#c14e0e"/><stop offset="0.14" stop-color="#c14e0e" stop-opacity="0.97"/><stop offset="0.33" stop-color="#c14e0e" stop-opacity="0.87"/><stop offset="0.55" stop-color="#c14e0e" stop-opacity="0.72"/><stop offset="0.8" stop-color="#c14e0e" stop-opacity="0.5"/><stop offset="1" stop-color="#c14e0e" stop-opacity="0.3"/></linearGradient><linearGradient id="linear-gradient-2" x1="25.91" y1="404.6" x2="1125" y2="404.6" xlink:href="#linear-gradient"/><linearGradient id="linear-gradient-3" x1="34.88" y1="421.04" x2="1125" y2="421.04" xlink:href="#linear-gradient"/><linearGradient id="linear-gradient-4" x1="43.86" y1="435.9" x2="1125" y2="435.9" xlink:href="#linear-gradient"/><linearGradient id="linear-gradient-5" x1="52.85" y1="449.56" x2="1125" y2="449.56" xlink:href="#linear-gradient"/><linearGradient id="linear-gradient-6" x1="61.85" y1="462.28" x2="1125" y2="462.28" xlink:href="#linear-gradient"/><linearGradient id="linear-gradient-7" x1="70.86" y1="474.19" x2="1125" y2="474.19" xlink:href="#linear-gradient"/><linearGradient id="linear-gradient-8" x1="79.88" y1="485.44" x2="1125" y2="485.44" xlink:href="#linear-gradient"/><linearGradient id="linear-gradient-9" x1="88.92" y1="496.12" x2="1125" y2="496.12" xlink:href="#linear-gradient"/><linearGradient id="linear-gradient-10" x1="97.98" y1="506.27" x2="1125" y2="506.27" xlink:href="#linear-gradient"/></defs><path class="cls-1" d="M70.67,575.48C193.33,493.23,332.35,400,472.5,400c53.07,0,133.17-1.09,215.78-10.56,87.87-10.07,164.6-28.06,228.05-53.48,77.91-31.2,138.7-74.65,180.69-129.13A329.43,329.43,0,0,0,1125,164v-2.09a326.53,326.53,0,0,1-28.78,44.36C1054.35,260.56,993.7,303.9,916,335c-63.36,25.38-140,43.35-227.78,53.4C605.61,397.91,525.54,399,472.5,399c-140.45,0-279.61,93.32-402.38,175.65C52,586.78,34.3,598.66,17,610h1.82C35.72,598.91,53,587.32,70.67,575.48Z"/><path class="cls-2" d="M927.63,347c-63.64,24.54-140.46,41.5-228.3,50.41-82.62,8.39-162.64,8.44-215.64,7.75-140.35-1.8-280.61,89.62-404.36,170.3-18.18,11.85-36,23.46-53.42,34.53h1.87c17-10.82,34.37-22.14,52.1-33.69,123.63-80.6,263.75-172,403.79-170.14,53,.69,133.09.64,215.76-7.75,87.93-8.92,164.83-25.9,228.56-50.48,78.26-30.17,139.57-72.79,182.23-126.69Q1118,211.41,1125,201v-1.8q-7.35,11-15.56,21.43C1066.89,274.38,1005.72,316.9,927.63,347Z"/><path class="cls-3" d="M939.31,359c-63.93,23.69-140.91,39.65-228.82,47.41-82.68,7.31-162.65,6.32-215.61,5-140.24-3.64-281.61,85.92-406.34,164.94C70.28,587.86,52.39,599.19,34.88,610h1.9c17.07-10.55,34.51-21.6,52.3-32.87C213.69,498.19,354.9,408.69,494.85,412.35c53,1.38,133,2.36,215.73-5,88-7.77,165.07-23.75,229.08-47.48,78.61-29.13,140.43-70.94,183.77-124.25.53-.65,1-1.32,1.57-2v-1.6c-.78,1-1.55,2-2.35,2.95C1079.43,288.21,1017.75,329.91,939.31,359Z"/><path class="cls-4" d="M951,371c-64.22,22.86-141.38,37.8-229.35,44.42-82.74,6.23-162.67,4.2-215.59,2.14C365.93,412,223.46,499.74,97.76,577.11,79.41,588.4,61.44,599.46,43.86,610H45.8c17.13-10.29,34.63-21,52.48-32C223.86,500.67,366.19,413.06,506,418.52c53,2.06,132.91,4.09,215.7-2.14,88.06-6.63,165.32-21.59,229.61-44.48,72.24-25.71,130.56-62.21,173.67-108.62v-1.47C1081.93,308.47,1023.49,345.16,951,371Z"/><path class="cls-5" d="M732.81,424.36c-82.8,5.15-162.68,2.09-215.56-.67-140-7.27-283.6,78.53-410.28,154.24-18.42,11-36.47,21.79-54.12,32.07h2c17.19-10,34.75-20.51,52.66-31.21,126.55-75.64,270-161.37,409.71-154.1,52.9,2.76,132.82,5.82,215.67.67C821,419.88,898.42,405.93,963,383.88c65.57-22.38,119.89-53.72,162-93.38v-1.37c-42.1,39.86-96.54,71.35-162.32,93.81C898.18,405,820.85,418.89,732.81,424.36Z"/><path class="cls-6" d="M744,433.34c-82.86,4.07-162.69,0-215.53-3.47-139.92-9.11-284.6,74.82-412.25,148.88C97.69,589.48,79.57,600,61.85,610h2c17.24-9.76,34.85-20,52.81-30.39,127.53-74,272.07-157.85,411.68-148.74,52.87,3.44,132.74,7.54,215.65,3.47,88.19-4.33,165.79-17.27,230.65-38.48,59.4-19.41,109.75-46.24,150.33-80v-1.29c-40.59,33.94-91,60.88-150.64,80.35C909.58,416.09,832.07,429,744,433.34Z"/><path class="cls-7" d="M755.13,442.32c-82.92,3-162.7-2.15-215.5-6.28C399.81,425.11,254,507.17,125.4,579.57,106.84,590,88.65,600.25,70.86,610h2.07c17.29-9.49,34.95-19.42,53-29.56C254.39,508.11,400,426.13,539.55,437c52.82,4.13,132.65,9.27,215.62,6.28,88.25-3.18,166-15.12,231.16-35.47,53.64-16.77,100-39.62,138.67-68.22v-1.25c-38.66,28.74-85.16,51.69-139,68.51C921,427.22,843.29,439.14,755.13,442.32Z"/><path class="cls-8" d="M766.29,451.3c-83,1.91-162.72-4.27-215.48-9.08-139.7-12.77-286.59,67.42-416.19,138.16C116,590.55,97.73,600.51,79.88,610H82c17.33-9.22,35-18.88,53.09-28.74,129.47-70.67,276.22-150.78,415.62-138,52.79,4.82,132.57,11,215.59,9.09,88.32-2,166.27-13,231.69-32.47,48.19-14.38,90.65-33.71,127-57.74v-1.2c-36.39,24.15-78.94,43.56-127.28,58C932.38,438.36,854.52,449.27,766.29,451.3Z"/><path class="cls-9" d="M777.45,460.28c-83,.85-162.73-6.39-215.45-11.89C422.41,433.81,274.41,512.12,143.83,581.2c-18.69,9.89-37,19.58-54.91,28.8H91.1c17.37-9,35.11-18.34,53.2-27.91,130.45-69,278.3-147.26,417.6-132.71,52.74,5.51,132.47,12.74,215.56,11.9,88.38-.88,166.51-10.8,232.21-29.47q64.52-18.35,115.33-48.41v-1.17q-50.76,30.13-115.6,48.61C943.78,449.49,865.74,459.4,777.45,460.28Z"/><path class="cls-10" d="M1021.08,442.82c-65.9,17.81-144.1,26.7-232.47,26.44-83.1-.24-162.74-8.5-215.42-14.7-139.5-16.4-288.59,60-420.14,127.46-18.74,9.61-37.11,19-55.07,28h2.24c17.39-8.69,35.16-17.8,53.28-27.09,131.43-67.36,280.38-143.72,419.57-127.35,52.71,6.19,132.39,14.46,215.54,14.7,88.45.25,166.75-8.64,232.73-26.48q57.08-15.42,103.66-40.11v-1.13Q1078.43,427.29,1021.08,442.82Z"/></svg>