<svg id="Layer_1" data-name="Layer 1" xmlns="http://www.w3.org/2000/svg" viewBox="0 0 1837.52 552.05"><defs><style>.cls-1{fill:#c14e0e;}.cls-2{fill:none;stroke:#c14e0e;stroke-miterlimit:10;stroke-width:2px;}</style></defs><path class="cls-1" d="M1107.87,412.88a10.17,10.17,0,0,1-4.1-2.45l1.08-2.11a10.28,10.28,0,0,0,3.75,2.28,13.66,13.66,0,0,0,4.82.87,8.82,8.82,0,0,0,5.23-1.28,3.93,3.93,0,0,0,1.75-3.32,3.34,3.34,0,0,0-1-2.49,6.41,6.41,0,0,0-2.32-1.43,37,37,0,0,0-3.82-1.09,40.29,40.29,0,0,1-4.68-1.43,7.75,7.75,0,0,1-3-2.1,5.61,5.61,0,0,1-1.24-3.82,6.49,6.49,0,0,1,1-3.58,7.08,7.08,0,0,1,3.19-2.58,13.15,13.15,0,0,1,5.35-1,15.73,15.73,0,0,1,4.36.62,12.29,12.29,0,0,1,3.69,1.69l-.93,2.19a12.74,12.74,0,0,0-3.49-1.62,12.93,12.93,0,0,0-3.63-.54,8.37,8.37,0,0,0-5.14,1.32,4.1,4.1,0,0,0-1.73,3.4,3.39,3.39,0,0,0,1,2.5,6.28,6.28,0,0,0,2.37,1.45c1,.33,2.23.7,3.84,1.09a37.46,37.46,0,0,1,4.62,1.4,7.57,7.57,0,0,1,3,2.07,5.5,5.5,0,0,1,1.23,3.77,6.45,6.45,0,0,1-1.06,3.58,7.11,7.11,0,0,1-3.25,2.56,13.56,13.56,0,0,1-5.38.95A16.67,16.67,0,0,1,1107.87,412.88Z"/><path class="cls-1" d="M1133.4,412.1a12.55,12.55,0,0,1-4.86-4.73,13.92,13.92,0,0,1,0-13.55,12.54,12.54,0,0,1,4.88-4.73,14.29,14.29,0,0,1,7-1.71,14.49,14.49,0,0,1,5.34,1,11,11,0,0,1,4.16,2.82l-1.74,1.74a10.37,10.37,0,0,0-7.69-3.08,11.28,11.28,0,0,0-5.6,1.41,10.32,10.32,0,0,0-3.95,3.86,11.27,11.27,0,0,0,0,11,10.32,10.32,0,0,0,3.95,3.86,11.28,11.28,0,0,0,5.6,1.41,10.23,10.23,0,0,0,7.69-3.12l1.74,1.75a11.41,11.41,0,0,1-4.17,2.84,14.52,14.52,0,0,1-5.37,1A14.18,14.18,0,0,1,1133.4,412.1Z"/><path class="cls-1" d="M1177.48,387.61v26h-2.71v-12h-16.26v12h-2.75v-26h2.75v11.58h16.26V387.61Z"/><path class="cls-1" d="M1190.3,412.08a12.53,12.53,0,0,1-4.9-4.73,13.84,13.84,0,0,1,0-13.51,12.6,12.6,0,0,1,4.9-4.73,15,15,0,0,1,14,0,12.61,12.61,0,0,1,4.88,4.73,13.78,13.78,0,0,1,0,13.55,12.54,12.54,0,0,1-4.88,4.73,15,15,0,0,1-14,0Zm12.56-2.11a10.12,10.12,0,0,0,3.9-3.86,11.49,11.49,0,0,0,0-11,10,10,0,0,0-3.9-3.85,11.8,11.8,0,0,0-11.15,0,10.19,10.19,0,0,0-3.94,3.85,11.42,11.42,0,0,0,0,11,10.29,10.29,0,0,0,3.94,3.86,11.88,11.88,0,0,0,11.15,0Z"/><path class="cls-1" d="M1221.44,412.08a12.46,12.46,0,0,1-4.9-4.73,13.77,13.77,0,0,1,0-13.51,12.53,12.53,0,0,1,4.9-4.73,15,15,0,0,1,14,0,12.68,12.68,0,0,1,4.88,4.73,13.78,13.78,0,0,1,0,13.55,12.61,12.61,0,0,1-4.88,4.73,15,15,0,0,1-14,0ZM1234,410a10.09,10.09,0,0,0,3.89-3.86,11.49,11.49,0,0,0,0-11,10,10,0,0,0-3.89-3.85,11.8,11.8,0,0,0-11.15,0,10.13,10.13,0,0,0-3.94,3.85,11.35,11.35,0,0,0,0,11,10.22,10.22,0,0,0,3.94,3.86,11.88,11.88,0,0,0,11.15,0Z"/><path class="cls-1" d="M1248.21,387.61H1251v23.6h14.55v2.38h-17.3Z"/><path class="cls-1" d="M1284.15,412.08a12.5,12.5,0,0,1-4.89-4.73,13.77,13.77,0,0,1,0-13.51,12.57,12.57,0,0,1,4.89-4.73,15,15,0,0,1,14,0,12.75,12.75,0,0,1,4.88,4.73,13.78,13.78,0,0,1,0,13.55,12.67,12.67,0,0,1-4.88,4.73,15,15,0,0,1-14,0Zm12.57-2.11a10.16,10.16,0,0,0,3.89-3.86,11.49,11.49,0,0,0,0-11,10.06,10.06,0,0,0-3.89-3.85,11.8,11.8,0,0,0-11.15,0,10.13,10.13,0,0,0-3.94,3.85,11.35,11.35,0,0,0,0,11,10.22,10.22,0,0,0,3.94,3.86,11.88,11.88,0,0,0,11.15,0Z"/><path class="cls-1" d="M1313.68,390v10.21h13.43v2.37h-13.43v11h-2.75v-26h17.82V390Z"/><path class="cls-1" d="M1362.52,411.21v2.38h-18.37v-26H1362V390h-15.07v9.24h13.44v2.34h-13.44v9.65Z"/><path class="cls-1" d="M1390.69,387.61v26h-2.27l-16.7-21.08v21.08H1369v-26h2.26L1388,408.69V387.61Z"/><path class="cls-1" d="M1417.44,400.6h2.64v9.91a12.75,12.75,0,0,1-4.31,2.45,16.2,16.2,0,0,1-5.23.85,14.3,14.3,0,0,1-7-1.71,12.59,12.59,0,0,1-4.9-4.73,13.78,13.78,0,0,1,0-13.55,12.66,12.66,0,0,1,4.9-4.73,14.4,14.4,0,0,1,7-1.71,15.18,15.18,0,0,1,5.45.95,10.93,10.93,0,0,1,4.2,2.8l-1.71,1.75a10.67,10.67,0,0,0-7.83-3.05,11.68,11.68,0,0,0-5.7,1.4,10.26,10.26,0,0,0-4,3.85,10.77,10.77,0,0,0-1.44,5.52,10.64,10.64,0,0,0,1.44,5.49,10.51,10.51,0,0,0,4,3.86,11.48,11.48,0,0,0,5.68,1.41,11.34,11.34,0,0,0,6.79-2Z"/><path class="cls-1" d="M1427.84,387.61h2.74v26h-2.74Z"/><path class="cls-1" d="M1460.75,387.61v26h-2.26l-16.7-21.08v21.08H1439v-26h2.27L1458,408.69V387.61Z"/><path class="cls-1" d="M1487.59,411.21v2.38h-18.37v-26H1487V390H1472v9.24h13.44v2.34H1472v9.65Z"/><path class="cls-1" d="M1512.41,411.21v2.38H1494v-26h17.82V390h-15.07v9.24h13.43v2.34h-13.43v9.65Z"/><path class="cls-1" d="M1536.61,413.59l-5.94-8.35a19.75,19.75,0,0,1-2.07.11h-7v8.24h-2.75v-26h9.73q5,0,7.79,2.37a8.09,8.09,0,0,1,2.82,6.53,8.4,8.4,0,0,1-1.54,5.14,8.54,8.54,0,0,1-4.4,3l6.35,8.91Zm-2.19-12.29a6.7,6.7,0,0,0,0-9.63,9,9,0,0,0-5.9-1.69h-6.9v13h6.9A9,9,0,0,0,1534.42,401.3Z"/><path class="cls-1" d="M1545.7,387.61h2.75v26h-2.75Z"/><path class="cls-1" d="M1578.62,387.61v26h-2.26l-16.7-21.08v21.08h-2.75v-26h2.27l16.73,21.08V387.61Z"/><path class="cls-1" d="M1605.38,400.6H1608v9.91a12.85,12.85,0,0,1-4.31,2.45,16.24,16.24,0,0,1-5.23.85,14.36,14.36,0,0,1-7-1.71,12.59,12.59,0,0,1-4.9-4.73,13.78,13.78,0,0,1,0-13.55,12.66,12.66,0,0,1,4.9-4.73,14.42,14.42,0,0,1,7-1.71,15.27,15.27,0,0,1,5.46.95,10.82,10.82,0,0,1,4.19,2.8l-1.7,1.75a10.7,10.7,0,0,0-7.83-3.05,11.63,11.63,0,0,0-5.7,1.4,10.12,10.12,0,0,0-4,3.85,10.68,10.68,0,0,0-1.45,5.52,10.55,10.55,0,0,0,1.45,5.49,10.44,10.44,0,0,0,4,3.86,12.35,12.35,0,0,0,12.47-.59Z"/><path class="cls-1" d="M1111.3,347.16h-9.13v-2.38h21v2.38h-9.13v23.6h-2.75Z"/><path class="cls-1" d="M1149.27,344.78v26h-2.71v-12h-16.25v12h-2.75v-26h2.75v11.58h16.25V344.78Z"/><path class="cls-1" d="M1176.1,368.39v2.37h-18.37v-26h17.82v2.38h-15.07v9.24h13.43v2.34h-13.43v9.65Z"/><path class="cls-1" d="M1196.61,369.28a12.58,12.58,0,0,1-4.87-4.73,13.92,13.92,0,0,1,0-13.55,12.5,12.5,0,0,1,4.89-4.73,14.22,14.22,0,0,1,7-1.71,14.38,14.38,0,0,1,5.35,1,10.94,10.94,0,0,1,4.15,2.82l-1.74,1.74a10.36,10.36,0,0,0-7.68-3.08,11.29,11.29,0,0,0-5.61,1.41,10.32,10.32,0,0,0-4,3.86,11.27,11.27,0,0,0,0,11,10.32,10.32,0,0,0,4,3.86,11.29,11.29,0,0,0,5.61,1.41,10.22,10.22,0,0,0,7.68-3.12l1.74,1.74a11.1,11.1,0,0,1-4.17,2.84,14.27,14.27,0,0,1-5.36,1A14.13,14.13,0,0,1,1196.61,369.28Z"/><path class="cls-1" d="M1222.77,369.26a12.67,12.67,0,0,1-4.9-4.73,13.84,13.84,0,0,1,0-13.51,12.67,12.67,0,0,1,4.9-4.73,15,15,0,0,1,14,0,12.67,12.67,0,0,1,4.88,4.73,13.78,13.78,0,0,1,0,13.55,12.75,12.75,0,0,1-4.88,4.73,15,15,0,0,1-14,0Zm12.56-2.12a10,10,0,0,0,3.9-3.85,11.49,11.49,0,0,0,0-11,10.12,10.12,0,0,0-3.9-3.86,11.14,11.14,0,0,0-5.56-1.39,11.28,11.28,0,0,0-5.59,1.39,10.19,10.19,0,0,0-3.93,3.86,11.35,11.35,0,0,0,0,11,10.1,10.1,0,0,0,3.93,3.85,11.29,11.29,0,0,0,5.59,1.4A11.15,11.15,0,0,0,1235.33,367.14Z"/><path class="cls-1" d="M1253.91,369.26a12.6,12.6,0,0,1-4.9-4.73,13.84,13.84,0,0,1,0-13.51,12.6,12.6,0,0,1,4.9-4.73,15,15,0,0,1,13.95,0,12.54,12.54,0,0,1,4.88,4.73,13.78,13.78,0,0,1,0,13.55,12.61,12.61,0,0,1-4.88,4.73,15,15,0,0,1-13.95,0Zm12.56-2.12a10,10,0,0,0,3.9-3.85,11.49,11.49,0,0,0,0-11,10.12,10.12,0,0,0-3.9-3.86,11.88,11.88,0,0,0-11.15,0,10.29,10.29,0,0,0-3.94,3.86,11.42,11.42,0,0,0,0,11,10.19,10.19,0,0,0,3.94,3.85,11.8,11.8,0,0,0,11.15,0Z"/><path class="cls-1" d="M1298.2,347.16a9,9,0,0,1,0,13q-2.82,2.35-7.79,2.35h-7v8.2h-2.74v-26h9.72C1293.72,344.78,1296.32,345.58,1298.2,347.16Zm-2,11.3a5.84,5.84,0,0,0,2-4.77,5.92,5.92,0,0,0-2-4.84,9.05,9.05,0,0,0-5.91-1.69h-6.9v13h6.9A9.05,9.05,0,0,0,1296.24,358.46Z"/><path class="cls-1" d="M1325.33,368.39v2.37H1307v-26h17.81v2.38h-15.06v9.24h13.43v2.34h-13.43v9.65Z"/><path class="cls-1" d="M1349.53,370.76l-5.94-8.35a17.53,17.53,0,0,1-2.08.11h-7v8.24h-2.75v-26h9.72c3.32,0,5.92.8,7.8,2.38a8.08,8.08,0,0,1,2.82,6.53,8.49,8.49,0,0,1-1.54,5.14,8.58,8.58,0,0,1-4.4,3l6.34,8.9Zm-2.19-12.28a6.7,6.7,0,0,0,0-9.63,9,9,0,0,0-5.9-1.69h-6.9v13h6.9A9,9,0,0,0,1347.34,358.48Z"/><path class="cls-1" d="M1370.94,368.09q-2.82-2.89-2.82-8.42V344.78h2.75v14.77c0,3,.68,5.28,2,6.76a9,9,0,0,0,11.84,0c1.36-1.48,2-3.74,2-6.76V344.78h2.67v14.89q0,5.52-2.8,8.42t-7.85,2.9C1375.45,371,1372.82,370,1370.94,368.09Z"/><path class="cls-1" d="M1419.45,344.78v26h-2.27l-16.7-21.08v21.08h-2.74v-26H1400l16.74,21.08V344.78Z"/><path class="cls-1" d="M1427.91,344.78h2.75v26h-2.75Z"/><path class="cls-1" d="M1443.48,369.26a12.6,12.6,0,0,1-4.9-4.73,13.84,13.84,0,0,1,0-13.51,12.6,12.6,0,0,1,4.9-4.73,15,15,0,0,1,14,0,12.54,12.54,0,0,1,4.88,4.73,13.78,13.78,0,0,1,0,13.55,12.61,12.61,0,0,1-4.88,4.73,15,15,0,0,1-14,0Zm12.56-2.12a10,10,0,0,0,3.9-3.85,11.49,11.49,0,0,0,0-11,10.12,10.12,0,0,0-3.9-3.86,11.88,11.88,0,0,0-11.15,0,10.29,10.29,0,0,0-3.94,3.86,11.42,11.42,0,0,0,0,11,10.19,10.19,0,0,0,3.94,3.85,11.8,11.8,0,0,0,11.15,0Z"/><path class="cls-1" d="M1492,344.78v26h-2.27L1473,349.68v21.08h-2.75v-26h2.27l16.74,21.08V344.78Z"/><path class="cls-2" d="M278,354.88v65.06H17.27V368.19L150.34,242.51q21.19-20.2,28.59-34.75t7.39-28.84q0-20.7-14-31.79T131.12,136q-22.68,0-40.91,8.63a78.36,78.36,0,0,0-30.56,25.87L1.49,133.09Q21.7,103,57.19,86t81.32-17Q177,69,205.79,81.58t44.85,35.49q16,22.92,16,54a120.26,120.26,0,0,1-11.83,52.74Q243,248.43,209,280l-79.35,74.92Z"/><path class="cls-2" d="M381.5,404.66Q348,383.48,329,343.3t-19-95.87q0-55.68,19-95.86T381.5,90.21Q415,69,457.9,69t76.39,21.2q33.51,21.2,52.49,61.36t19,95.86q0,55.71-19,95.87t-52.49,61.36q-33.52,21.19-76.39,21.2T381.5,404.66Zm125.93-73.44q18-27.09,18-83.79t-18-83.79q-18-27.09-49.53-27.1-31,0-49,27.1t-18,83.79q0,56.69,18,83.79t49,27.11Q489.43,358.33,507.43,331.22Z"/><path class="cls-2" d="M899.51,354.88v65.06H638.78V368.19L771.86,242.51q21.18-20.2,28.58-34.75t7.4-28.84q0-20.7-14.05-31.79T752.63,136q-22.67,0-40.91,8.63a78.34,78.34,0,0,0-30.55,25.87L623,133.09Q643.22,103,678.7,86T760,69q38.44,0,67.27,12.57t44.86,35.49q16,22.92,16,54a120.39,120.39,0,0,1-11.82,52.74Q864.52,248.43,830.51,280l-79.36,74.92Z"/><path class="cls-2" d="M1065.61,74.93v345H985.76V139h-69V74.93Z"/><path class="cls-1" d="M115.48,319.47H10.5v-1.72a34.51,34.51,0,0,0,8-2.23,16.19,16.19,0,0,0,6.09-4.29,7.63,7.63,0,0,0,1.37-3c.35-1.31.66-2.83.95-4.54s.48-3.52.6-5.41.17-3.74.17-5.57q0-2.4.09-6.52c.05-2.74.11-5.75.17-9s.08-6.61.08-10v-43.4c0-2.06,0-4.17-.08-6.35s-.17-4.23-.35-6.17a32.11,32.11,0,0,0-.85-5.23,7.46,7.46,0,0,0-1.63-3.35,11.69,11.69,0,0,0-5.49-3.51A70.8,70.8,0,0,0,12,197.68V196h94.69l11.66,28.31-1.71.85Q102.78,207.8,90.6,201.79q-2.91-1.36-10.8-2.4a153,153,0,0,0-19.22-1c-2.4,0-4.88.09-7.46.26a47.44,47.44,0,0,0-5.57.6c-.23,1.83-.43,5.61-.6,11.32s-.26,12.35-.26,19.9v11q0,4.46.09,7.29c0,1.89.08,3.34.08,4.37V255h3.43q2.58,0,5.92-.17c2.23-.11,4.46-.26,6.69-.43a38.94,38.94,0,0,0,5.58-.77,29.9,29.9,0,0,0,8.57-3.26,18.83,18.83,0,0,0,5.58-5,24.53,24.53,0,0,0,3.43-6.78,79.51,79.51,0,0,0,2.31-8.66h2.06v54H88.37a58,58,0,0,0-4.2-11.32,30.18,30.18,0,0,0-5.92-8.75,22.59,22.59,0,0,0-6.6-3.94,29.53,29.53,0,0,0-9-1.89l-4.29-.26c-1.14-.05-2.28-.09-3.43-.09H47a53.71,53.71,0,0,0-.34,7v20.58c0,1.83,0,3.58.09,5.23s.08,3.06.08,4.21c.11,3.66.32,7.12.6,10.38a16.64,16.64,0,0,0,2,7.29q1.55,2.4,7.38,3.43a73.77,73.77,0,0,0,12.69,1c2,0,4.43-.06,7.47-.18s6.2-.4,9.52-.85a37.9,37.9,0,0,0,10.12-2.66,35.91,35.91,0,0,0,8.92-5.58,56.85,56.85,0,0,0,8.32-8.83,119,119,0,0,0,8.32-12.61l1.88.52Z"/><path class="cls-1" d="M260.34,200.94a15.19,15.19,0,0,0-5.92,7.37c-.8,1.72-1.32,4.89-1.54,9.52s-.46,9.58-.69,14.84q-.34,7.38-.6,17.41t-.26,21.53v11q0,6,.09,12.26t.08,12.44v11.15a1.5,1.5,0,0,1-.42,1.11,1.75,1.75,0,0,1-1.29.43,4.73,4.73,0,0,1-3.09-1.71q-14.58-16.81-26.59-30.88t-22.9-26.84q-10.89-12.78-21.35-25t-22.13-25.22v72.39q0,8.75.43,15.78T156.3,309a12.34,12.34,0,0,0,5.92,5.92,35.31,35.31,0,0,0,11.06,2.83v1.72H131.09v-1.72a33.45,33.45,0,0,0,8.23-2.14,13.46,13.46,0,0,0,6.52-5.4q2.4-3.61,3.09-10.64t1-16.81q.35-7.38.52-17.41t.17-21.53V222.89q0-3.42-.17-8.4a20,20,0,0,0-2.4-8.15,15.92,15.92,0,0,0-4.46-5,17.28,17.28,0,0,0-5.58-2.58,47.33,47.33,0,0,0-5.74-1.11V196h34.82l81.31,95V232.67q0-6.85-.17-13.12a30.92,30.92,0,0,0-1.55-9.86,15.62,15.62,0,0,0-6.09-7.81q-4.37-3-12.61-4.2V196h42.55v1.72A25.79,25.79,0,0,0,260.34,200.94Z"/><path class="cls-1" d="M413.44,278.64A55.18,55.18,0,0,1,405,295.45a49.81,49.81,0,0,1-12.35,11.67,66.83,66.83,0,0,1-14.92,7.37,82.49,82.49,0,0,1-16.3,3.86,123,123,0,0,1-16.3,1.12H282.55v-1.72a30.08,30.08,0,0,0,8.32-2.23,16.17,16.17,0,0,0,6.09-4.11,5.85,5.85,0,0,0,1.29-2.92c.28-1.37.54-2.92.77-4.63s.4-3.54.51-5.49.18-3.83.18-5.66c0-1.6,0-3.77.08-6.52s.11-5.75.17-9,.09-6.61.09-10V217.58c0-2.06-.09-4-.26-5.75A35.49,35.49,0,0,0,299,207a8,8,0,0,0-1.54-3.35,13.52,13.52,0,0,0-6.18-4.29,39.86,39.86,0,0,0-8.06-1.71V196q7.2,0,20.75-.08t32.77-.09h11q5.65,0,11.32.51A98.31,98.31,0,0,1,370.38,198a57.7,57.7,0,0,1,11.15,3.6,64.67,64.67,0,0,1,13.55,7.89,52.55,52.55,0,0,1,11.06,11.41,55.55,55.55,0,0,1,7.55,15.27A63.62,63.62,0,0,1,416.52,256,75.55,75.55,0,0,1,413.44,278.64ZM392.34,237a62.16,62.16,0,0,0-8.58-17.07,55.09,55.09,0,0,0-13-12.95,40.23,40.23,0,0,0-16.47-6.86c-2.28-.46-4.8-.83-7.54-1.12s-6.12-.42-10.12-.42c-1.38,0-2.86,0-4.46.08s-3.18.17-4.72.34-3,.32-4.29.43a17.65,17.65,0,0,0-3.17.52q-.87,8.4-1,23.15t-.17,35.17V278.3q0,8.93.17,14.58c0,1.6.08,3.35.26,5.23s.37,3.72.6,5.49a22.27,22.27,0,0,0,1.11,4.8,8.73,8.73,0,0,0,1.8,3.18,15.81,15.81,0,0,0,8.66,4.37,55.71,55.71,0,0,0,9.87.95c2.86,0,5.8-.15,8.83-.43a43.31,43.31,0,0,0,8.49-1.63q18.52-5.32,27.71-20.67t9.17-37.83A62.16,62.16,0,0,0,392.34,237Z"/><path class="cls-1" d="M586.17,282.25a63.84,63.84,0,0,1-14,20.24A61.68,61.68,0,0,1,551.6,315.7a69.46,69.46,0,0,1-49.66.08,62,62,0,0,1-20.41-12.86A60.63,60.63,0,0,1,467.72,283a67.68,67.68,0,0,1,.26-52,59.68,59.68,0,0,1,14.32-19.9,63.2,63.2,0,0,1,21.1-12.52,74.52,74.52,0,0,1,25.48-4.37A63.81,63.81,0,0,1,555,199.39a59.64,59.64,0,0,1,19.64,13.81,60.61,60.61,0,0,1,12.35,20,66.4,66.4,0,0,1,4.29,23.67A62.23,62.23,0,0,1,586.17,282.25Zm-18.78-46.32a66.89,66.89,0,0,0-8.07-19.3,46,46,0,0,0-13.46-14.06,33.36,33.36,0,0,0-19-5.41,34,34,0,0,0-19.3,5.41,44.07,44.07,0,0,0-13.38,14A64.83,64.83,0,0,0,486.42,236a98.59,98.59,0,0,0-2.49,22,90.87,90.87,0,0,0,2.75,22.47,62.29,62.29,0,0,0,8.15,19,42.59,42.59,0,0,0,13.55,13.21,35.6,35.6,0,0,0,19,5,32.25,32.25,0,0,0,18.79-5.49,46.33,46.33,0,0,0,13.29-14.15,68.24,68.24,0,0,0,8-19.47A90.26,90.26,0,0,0,570,257,86.83,86.83,0,0,0,567.39,235.93Z"/><path class="cls-1" d="M710.19,225.64a167.31,167.31,0,0,0-13.38-14.93,48.94,48.94,0,0,0-12.35-9.09q-2.93-1.37-10.55-2.31a146.29,146.29,0,0,0-17.75-.95c-1.15,0-2.46,0-3.95.09l-4.29.17-3.86.17c-1.2.06-2.09.09-2.66.09-.11.68-.25,1.37-.42,2.06a17.75,17.75,0,0,0-.43,2.4c-.12.91-.23,2.09-.35,3.52s-.23,3.17-.34,5.23q-.18,6-.26,13.12t-.08,13.46V255h3.08q2.74,0,6.09-.17c2.23-.11,4.55-.26,6.95-.43a45.14,45.14,0,0,0,6-.77,32.24,32.24,0,0,0,9.77-3.6,18.13,18.13,0,0,0,5.66-5.32A20.3,20.3,0,0,0,680,237.9c.57-2.45,1.09-5.11,1.54-8h2.06v55.23h-2.06a79.35,79.35,0,0,0-3.94-11.58,26.33,26.33,0,0,0-6.18-9.35,23.28,23.28,0,0,0-6.94-4.37,29.13,29.13,0,0,0-8.67-1.8c-1.71-.11-3.2-.2-4.46-.26s-2.46-.09-3.6-.09h-8.23V279c0,3.2,0,6.14.08,8.83s.09,5,.09,6.95q.16,5.49.6,10.38a16.37,16.37,0,0,0,2,7.29,9.69,9.69,0,0,0,5.23,3.68,39.82,39.82,0,0,0,10.72,1.63v1.72H603.32v-1.72a34.46,34.46,0,0,0,8-2.23,16.19,16.19,0,0,0,6.09-4.29,7.63,7.63,0,0,0,1.37-3c.34-1.31.66-2.83.94-4.54a50,50,0,0,0,.6-5.41c.12-1.88.18-3.74.18-5.57,0-1.6,0-3.77.08-6.52s.11-5.75.17-9,.09-6.61.09-10v-43.4c0-2.06,0-4.17-.09-6.35s-.17-4.23-.34-6.17a32.06,32.06,0,0,0-.86-5.23,7.26,7.26,0,0,0-1.63-3.35,11.6,11.6,0,0,0-5.49-3.51,70.55,70.55,0,0,0-7.54-1.46V196h95.37l11.67,28.82Z"/><path class="cls-1" d="M853.59,200.08a26.55,26.55,0,0,0-6.35,4.46,42.5,42.5,0,0,0-5.57,6.52q-2.65,3.76-5.75,8.57-2.05,3.27-5.74,8.84t-7.55,11.58q-3.86,6-7.46,11.49t-5.66,8.58V294.6q0,5,.25,9.69t1.63,6.6a12,12,0,0,0,6.69,5,77,77,0,0,0,7.89,1.88v1.72H773.14v-1.72a38.37,38.37,0,0,0,7.81-1.63q3.34-1.11,7.11-5.4a5.72,5.72,0,0,0,1.29-2.92,42.81,42.81,0,0,0,.69-4.63c.17-1.71.28-3.54.34-5.49s.09-3.83.09-5.66q.16-4.8.25-11.4t.09-16c-.23-.35-.92-1.43-2.06-3.26s-2.55-4.09-4.2-6.78-3.49-5.69-5.49-9-4-6.55-5.92-9.7-3.77-6.09-5.49-8.83-3.14-5-4.29-6.69q-3.25-5-5.91-9.09a49.12,49.12,0,0,0-5.41-7,29.77,29.77,0,0,0-5.4-4.64,12.14,12.14,0,0,0-6.09-1.88V196h52v1.72c-1.71.11-3.43.28-5.14.51a24.08,24.08,0,0,0-4.8,1.12,9.9,9.9,0,0,0-3.61,2.06,4.59,4.59,0,0,0-1.37,3.51q0,2.24,2.49,6.78t5.23,9.17c1.26,2.06,2.74,4.55,4.46,7.47s3.6,6,5.66,9.26,4.14,6.6,6.26,10,4.09,6.7,5.92,9.78c1.48-2.17,3.32-4.94,5.49-8.32s4.37-6.8,6.6-10.29,4.35-6.83,6.35-10,3.52-5.72,4.55-7.55c.57-.92,1.2-2,1.88-3.18s1.35-2.45,2-3.77a36.91,36.91,0,0,0,1.63-4,12.2,12.2,0,0,0,.68-3.77,6.26,6.26,0,0,0-1.37-4.29,9.18,9.18,0,0,0-3.52-2.4,23.15,23.15,0,0,0-4.71-1.29c-1.72-.28-3.38-.54-5-.77V196h39.63v1.72A27,27,0,0,0,853.59,200.08Z"/><path class="cls-1" d="M968.18,319.47h-105v-1.72a34.51,34.51,0,0,0,8-2.23,16.19,16.19,0,0,0,6.09-4.29,7.63,7.63,0,0,0,1.37-3c.35-1.31.66-2.83,1-4.54s.48-3.52.6-5.41.17-3.74.17-5.57q0-2.4.09-6.52c0-2.74.11-5.75.17-9s.08-6.61.08-10v-43.4c0-2.06,0-4.17-.08-6.35s-.17-4.23-.35-6.17a32.11,32.11,0,0,0-.85-5.23,7.46,7.46,0,0,0-1.63-3.35,11.69,11.69,0,0,0-5.49-3.51,70.8,70.8,0,0,0-7.55-1.46V196h94.69l11.66,28.31-1.71.85q-13.9-17.33-26.08-23.33-2.91-1.36-10.8-2.4a153,153,0,0,0-19.22-1c-2.4,0-4.88.09-7.46.26a47.44,47.44,0,0,0-5.57.6c-.23,1.83-.43,5.61-.6,11.32s-.26,12.35-.26,19.9v11q0,4.46.09,7.29c0,1.89.08,3.34.08,4.37V255H903q2.58,0,5.92-.17c2.23-.11,4.46-.26,6.69-.43a38.94,38.94,0,0,0,5.58-.77,29.9,29.9,0,0,0,8.57-3.26,18.83,18.83,0,0,0,5.58-5,24.53,24.53,0,0,0,3.43-6.78,79.51,79.51,0,0,0,2.31-8.66h2.06v54h-2.06a58,58,0,0,0-4.2-11.32,30.18,30.18,0,0,0-5.92-8.75,22.59,22.59,0,0,0-6.6-3.94,29.53,29.53,0,0,0-9-1.89l-4.29-.26c-1.14-.05-2.28-.09-3.43-.09h-7.89a53.71,53.71,0,0,0-.34,7v20.58c0,1.83,0,3.58.09,5.23s.08,3.06.08,4.21c.11,3.66.32,7.12.6,10.38a16.64,16.64,0,0,0,2,7.29q1.54,2.4,7.38,3.43a73.77,73.77,0,0,0,12.69,1c1.95,0,4.43-.06,7.47-.18s6.2-.4,9.52-.85a38,38,0,0,0,10.12-2.66,35.91,35.91,0,0,0,8.92-5.58,56.85,56.85,0,0,0,8.32-8.83,119,119,0,0,0,8.32-12.61l1.88.52Z"/><path class="cls-1" d="M1054.29,319.47v-1.72a19.83,19.83,0,0,0,2.48-.34,20.79,20.79,0,0,0,4.12-1.2,11.82,11.82,0,0,0,3.78-2.4,5.22,5.22,0,0,0,1.62-3.95,22.43,22.43,0,0,0-.94-5.06q-.94-3.51-2.66-8.57T1058.75,285q-2.24-6.18-4.81-12.87h-45.62q-2.58,6.53-5,12.44t-4.8,11.92q-3.6,9.27-3.6,13a5.14,5.14,0,0,0,1.37,3.69,10.59,10.59,0,0,0,3.51,2.4,19.53,19.53,0,0,0,4.64,1.37c1.65.29,3.23.55,4.71.77v1.72H972.64v-1.89a19,19,0,0,0,7.63-2.4,17.43,17.43,0,0,0,3.69-2.57A37.61,37.61,0,0,0,987.9,307a124.7,124.7,0,0,0,6.69-13.21q3.6-8.07,8.06-18.36t9.18-21.18q4.73-10.89,9.35-22t8.75-20.67l-1.72-3.77a28.19,28.19,0,0,0,5.58-3.26,32.42,32.42,0,0,0,4.37-3.95,35.24,35.24,0,0,0,3.18-3.94c.85-1.26,1.51-2.29,2-3.09h1.37q5.31,14.24,10.12,27t9.18,24.61q4.38,11.84,8.49,22.9T1080.7,290q1.89,5.32,3.52,8.84t3.69,8a24,24,0,0,0,1.54,2.4,21.65,21.65,0,0,0,3.18,3.51,19.61,19.61,0,0,0,4.88,3.18,17.86,17.86,0,0,0,6.87,1.54v2.06Zm-22.47-104c-.69,1.48-1.69,3.83-3,7s-2.94,7.09-4.88,11.66-4.09,9.76-6.44,15.53-4.89,12-7.63,18.78h42.71q-2.91-7.71-5.92-15.44t-5.83-14.83q-2.83-7.12-5.14-13T1031.82,215.52Z"/><path class="cls-1" d="M1200.44,319.47c-1-1-1.78-1.8-2.23-2.32s-1-1.11-1.55-1.8a32.76,32.76,0,0,1-2.14-3c-.86-1.31-2.21-3.29-4-5.92q-3.27-4.8-5.75-8.66t-5.06-7.63q-2.58-3.78-5.58-7.64t-7.11-8.66a70.38,70.38,0,0,0-7.47-7.38,18.41,18.41,0,0,0-8.49-4.28,26.09,26.09,0,0,0-5-.69c-1,0-2.35-.06-4-.17V280.7q0,8.24.17,13.9c.12,3.66.23,6.8.35,9.43a12.54,12.54,0,0,0,1.88,6.52,15.11,15.11,0,0,0,5.32,4.54q3.95,2.32,11,2.66v1.72h-54.89v-1.72a47.86,47.86,0,0,0,8.23-2.05,13.47,13.47,0,0,0,6.18-4.12,7.82,7.82,0,0,0,1.37-3.09,32.82,32.82,0,0,0,.77-4.63c.17-1.72.32-3.54.43-5.49s.17-3.83.17-5.66q0-2.4.09-6.52c0-2.74.11-5.75.17-9s.09-6.61.09-10v-43.4c0-2.06,0-4.14-.09-6.26s-.17-4.12-.34-6a31.93,31.93,0,0,0-.86-5.15,7.22,7.22,0,0,0-1.63-3.34,12.91,12.91,0,0,0-5.75-3.69,57.33,57.33,0,0,0-7.8-1.63V196h7q5.83,0,13.21-.08t14.75-.09h12q11.49,0,20.41.69a40.83,40.83,0,0,1,16.3,4.63,33,33,0,0,1,12.18,10.72q4.62,6.78,4.63,17.07a27,27,0,0,1-2.32,11.4,30.23,30.23,0,0,1-6.17,8.92,37.78,37.78,0,0,1-9,6.61,70.08,70.08,0,0,1-10.8,4.63V261a22.2,22.2,0,0,1,5.66,4.46,63.82,63.82,0,0,1,5.31,6.52q4.47,6.53,9.7,14.07t9.34,13.38q6.35,8.93,12.35,13a33.07,33.07,0,0,0,14.07,5.31v1.72Zm-17-106.87A29.57,29.57,0,0,0,1170.93,202a37.06,37.06,0,0,0-8.66-2.75,51.47,51.47,0,0,0-9.52-.86c-2.4,0-4.35.06-5.83.18s-2.64.23-3.43.34c-.12.68-.23,1.29-.35,1.8a13.55,13.55,0,0,0-.25,2c-.06.8-.12,1.92-.18,3.35s-.14,3.46-.25,6.09q-.18,6-.26,13.55t-.09,14.58v18.87q7,0,13.13-.6A53.76,53.76,0,0,0,1167,256a31.67,31.67,0,0,0,9.43-4.63,26.76,26.76,0,0,0,10.12-14.58,32.94,32.94,0,0,0,1.2-8.92A27.67,27.67,0,0,0,1183.45,212.6Z"/><path class="cls-1" d="M1358,300.43a33.42,33.42,0,0,1-9.26,11.15,39.28,39.28,0,0,1-14.16,6.86,69,69,0,0,1-18,2.23,86.39,86.39,0,0,1-14.41-1,56.39,56.39,0,0,1-9.94-2.49,35.28,35.28,0,0,1-5.92-2.66,8,8,0,0,0-2.49-1.2c-.34,0-1.09.69-2.23,2.06s-2.17,2.69-3.09,3.95h-1.54l-.52-34.14h1.72a54.71,54.71,0,0,0,3.94,9,74.34,74.34,0,0,0,5.24,8.23,46.34,46.34,0,0,0,6,6.78,29.68,29.68,0,0,0,6.09,4.46,47.91,47.91,0,0,0,7.72,3.08,30.2,30.2,0,0,0,9.26,1.55q12.69,0,20.59-6.95t7.89-18.78a21.21,21.21,0,0,0-1.55-8.41,19.91,19.91,0,0,0-4.2-6.26,25.34,25.34,0,0,0-6.26-4.54,68.37,68.37,0,0,0-7.72-3.44c-2.74-1-5.15-1.88-7.2-2.57s-4-1.34-5.75-2-3.6-1.26-5.49-1.89-4.15-1.46-6.78-2.49a37,37,0,0,1-8.57-4.71,34.87,34.87,0,0,1-7.21-7,35.61,35.61,0,0,1-5-8.92,28.49,28.49,0,0,1-1.89-10.37,35.06,35.06,0,0,1,3.38-16,32.71,32.71,0,0,1,9.1-11.15,38.31,38.31,0,0,1,13.17-6.6,56.47,56.47,0,0,1,15.69-2.14,58.55,58.55,0,0,1,13.21,1.28,53.21,53.21,0,0,1,9,2.83,31.47,31.47,0,0,1,5.31,2.83,11.54,11.54,0,0,0,2,1.29c.34,0,1-.69,2.14-2.06s2.09-2.74,3-4.12h1.89v31.74h-1.89a68.14,68.14,0,0,0-5.32-11.24,51.16,51.16,0,0,0-7.54-9.95,36.55,36.55,0,0,0-9.78-7.12,27,27,0,0,0-12.18-2.74,32,32,0,0,0-10,1.54,23.26,23.26,0,0,0-8.24,4.64,21.29,21.29,0,0,0-5.49,7.63,25.93,25.93,0,0,0-2,10.38q0,9.09,5.48,14.58a39,39,0,0,0,14.2,8.75q3.42,1.36,6.41,2.4t5.91,2q2.9.94,5.9,2t6.25,2.23q11.63,4.29,18.05,12.44t6.41,20.33A31.84,31.84,0,0,1,1358,300.43Z"/><path class="cls-1" d="M1462.54,319.47v-1.72a34.93,34.93,0,0,0,10.64-2.31c2.85-1.2,4.74-2.55,5.66-4a6.42,6.42,0,0,0,.6-2.06c.17-1,.31-2.23.43-3.6s.19-2.8.25-4.29.09-2.92.09-4.29c.11-3.78.17-7.66.17-11.67V258.4h-67.76v36.88q0,5,.17,9.61c.12,3.09.63,5.26,1.55,6.52a12.88,12.88,0,0,0,5.83,4.46,25.63,25.63,0,0,0,7.38,1.88v1.72h-50.61v-1.72a36.11,36.11,0,0,0,8.24-2.31,15.58,15.58,0,0,0,6-4,7.09,7.09,0,0,0,1.12-2.83A41.89,41.89,0,0,0,1393,304c.17-1.72.32-3.57.43-5.57s.17-3.92.17-5.75q0-2.4.09-6.52c0-2.74.11-5.75.17-9s.09-6.61.09-10V217.58c0-2.06-.09-4-.26-5.75a35.49,35.49,0,0,0-.77-4.8,8,8,0,0,0-1.55-3.35,13.6,13.6,0,0,0-5.92-4.2,34.5,34.5,0,0,0-8-1.8V196h51.12v1.72a50.38,50.38,0,0,0-5.15,1,16.19,16.19,0,0,0-5,2.14,12.24,12.24,0,0,0-3.78,4,13.66,13.66,0,0,0-1.71,6.52q-.18,6-.26,12.95t-.09,13.3V255h67.76V227.35q0-4.46-.17-10.12-.18-3.25-.43-6.77a12.72,12.72,0,0,0-1.63-5.75q-3.09-4.64-7-5.75a34.36,34.36,0,0,0-7.89-1.28V196h51.63v1.72a27.41,27.41,0,0,0-8.06,2.31,12.19,12.19,0,0,0-5.84,5.23,10.15,10.15,0,0,0-1,3.35,46.76,46.76,0,0,0-.52,4.8c-.11,1.78-.17,3.58-.17,5.41v56.09q0,4.8.08,9.95t.09,11.32q0,5,.26,9.18t1.28,5.74a11.85,11.85,0,0,0,6,4.81,36.19,36.19,0,0,0,8.23,1.88v1.72Z"/><path class="cls-1" d="M1652.26,282.25a63.84,63.84,0,0,1-14,20.24,61.68,61.68,0,0,1-20.59,13.21,69.46,69.46,0,0,1-49.66.08,62,62,0,0,1-20.41-12.86,60.63,60.63,0,0,1-13.81-19.9,67.68,67.68,0,0,1,.26-52,59.68,59.68,0,0,1,14.32-19.9,63.2,63.2,0,0,1,21.1-12.52,74.48,74.48,0,0,1,25.48-4.37,63.73,63.73,0,0,1,26.15,5.14,59.57,59.57,0,0,1,19.65,13.81,60.61,60.61,0,0,1,12.35,20,66.4,66.4,0,0,1,4.29,23.67A62.23,62.23,0,0,1,1652.26,282.25Zm-18.78-46.32a66.89,66.89,0,0,0-8.07-19.3A46,46,0,0,0,1612,202.57a33.36,33.36,0,0,0-19-5.41,34,34,0,0,0-19.3,5.41,44.07,44.07,0,0,0-13.38,14,64.83,64.83,0,0,0-7.72,19.47,98.59,98.59,0,0,0-2.49,22,90.87,90.87,0,0,0,2.75,22.47,62.29,62.29,0,0,0,8.15,19,42.59,42.59,0,0,0,13.55,13.21,35.6,35.6,0,0,0,19,5,32.25,32.25,0,0,0,18.79-5.49,46.33,46.33,0,0,0,13.29-14.15,68.24,68.24,0,0,0,8-19.47,90.26,90.26,0,0,0,2.65-21.61A86.83,86.83,0,0,0,1633.48,235.93Z"/><path class="cls-1" d="M1830.23,200.08a17.67,17.67,0,0,0-3.52,2.57c-.34.35-.86.92-1.54,1.72a29.47,29.47,0,0,0-2.4,3.34,45.94,45.94,0,0,0-2.92,5.49c-1,2.23-2.12,5-3.26,8.32q-2.74,8.4-6.35,18.61t-7.29,21q-3.69,10.8-7.46,21.7t-7,20.67L1781.25,320h-1.71q-4.63-12.35-8.66-23.67t-7.72-21.78q-3.69-10.47-7.12-20.33t-7-19.47q-2.76,7.89-5.84,16.55T1737,268.87q-3.09,8.91-6.18,17.58t-6,16.72L1717.27,320h-2.06q-5.31-13.89-10-26.41l-9.09-24.1-8.5-22.48q-4.11-10.89-8.23-21.7c-.8-2.17-1.52-4-2.14-5.66s-1.2-3.08-1.72-4.46-1.06-2.68-1.63-3.94-1.2-2.57-1.88-3.95c-.35-.68-.84-1.54-1.46-2.57a12.76,12.76,0,0,0-2.66-3,18.19,18.19,0,0,0-4.12-2.57,16.32,16.32,0,0,0-6.17-1.29V196H1706v1.72a20.44,20.44,0,0,0-2.92.34,22.44,22.44,0,0,0-4.29,1.2,10.39,10.39,0,0,0-3.85,2.57,6.45,6.45,0,0,0-1.63,4.64q0,1.55,1.8,7.11t4.71,13.56q2.93,8,6.44,17.41t7,18.61q3.51,9.18,6.6,17.15t5,13.12q.51-1.36,2.57-7.11l5.15-14.41q3.09-8.67,6.86-19.56t7.55-22.73q-2.58-6.86-4.63-12.09t-4.46-10.21a21.37,21.37,0,0,0-1.81-2.91,14,14,0,0,0-3.08-3,17.16,17.16,0,0,0-4.89-2.41,26.91,26.91,0,0,0-7-1.11V196h53.7v1.72q-1,.16-3.69.51a25.61,25.61,0,0,0-5.32,1.29,16.55,16.55,0,0,0-4.8,2.66,5.28,5.28,0,0,0-2.15,4.29,41.8,41.8,0,0,0,1.89,6.94q1.89,5.92,4.8,14.41t6.52,18.44q3.6,10,6.86,19.13t5.92,16.47q2.65,7.29,3.86,10.55.51-1.2,1.8-5.06t3.26-9.44c1.31-3.71,2.75-7.86,4.29-12.44s3.09-9.23,4.63-14,3.09-9.5,4.63-14.24,2.94-9.18,4.2-13.3a67.22,67.22,0,0,0,2.75-11.49c.23-2.4.34-4.17.34-5.32a5.86,5.86,0,0,0-1.54-4.2,13.22,13.22,0,0,0-3.78-2.74,21.19,21.19,0,0,0-4.8-1.72,31.81,31.81,0,0,0-4.63-.77V196h37.74v1.72A17.35,17.35,0,0,0,1830.23,200.08Z"/></svg>