<svg id="Layer_1" data-name="Layer 1" xmlns="http://www.w3.org/2000/svg" xmlns:xlink="http://www.w3.org/1999/xlink" viewBox="0 0 598 1944"><defs><style>.cls-1{fill:url(#linear-gradient);}.cls-2{fill:url(#linear-gradient-2);}.cls-3{fill:url(#linear-gradient-3);}.cls-4{fill:url(#linear-gradient-4);}.cls-5{fill:url(#linear-gradient-5);}.cls-6{fill:url(#linear-gradient-6);}.cls-7{fill:url(#linear-gradient-7);}.cls-8{fill:url(#linear-gradient-8);}</style><linearGradient id="linear-gradient" x1="643.22" y1="991.11" x2="46.03" y2="991.11" gradientUnits="userSpaceOnUse"><stop offset="0" stop-color="#c14e0e"/><stop offset="0.16" stop-color="#c14e0e" stop-opacity="0.85"/><stop offset="0.51" stop-color="#c14e0e" stop-opacity="0.48"/><stop offset="0.67" stop-color="#c14e0e" stop-opacity="0.3"/><stop offset="0.71" stop-color="#c14e0e" stop-opacity="0.33"/><stop offset="0.78" stop-color="#c14e0e" stop-opacity="0.42"/><stop offset="0.85" stop-color="#c14e0e" stop-opacity="0.57"/><stop offset="0.93" stop-color="#c14e0e" stop-opacity="0.78"/><stop offset="1" stop-color="#c14e0e"/></linearGradient><linearGradient id="linear-gradient-2" x1="634.36" y1="1016.62" x2="242.71" y2="1016.62" xlink:href="#linear-gradient"/><linearGradient id="linear-gradient-3" x1="635.75" y1="1011.2" x2="217.51" y2="1011.2" xlink:href="#linear-gradient"/><linearGradient id="linear-gradient-4" x1="638.65" y1="1005.78" x2="192.77" y2="1005.78" xlink:href="#linear-gradient"/><linearGradient id="linear-gradient-5" x1="641.56" y1="1000.36" x2="168.31" y2="1000.36" xlink:href="#linear-gradient"/><linearGradient id="linear-gradient-6" x1="644.46" y1="994.94" x2="144.09" y2="994.94" xlink:href="#linear-gradient"/><linearGradient id="linear-gradient-7" x1="647.36" y1="989.53" x2="120" y2="989.53" xlink:href="#linear-gradient"/><linearGradient id="linear-gradient-8" x1="650.26" y1="984.11" x2="95.97" y2="984.11" xlink:href="#linear-gradient"/></defs><path class="cls-1" d="M608,1936c-12.86-259.86-211-550.12-350.89-757.72C127.23,985.48,15.06,819,53.8,682.18c21.11-74.55,86-135.58,198.33-186.57,120.53-54.69,219.35-138.2,293.72-248.2A757.05,757.05,0,0,0,639.6,54.2c1.12-3.42,2-6.12,2.68-8l.94.34c-.66,1.84-1.55,4.54-2.67,7.95A757.5,757.5,0,0,1,546.67,248C472.2,358.12,373.24,441.75,252.55,496.52,140.49,547.38,75.79,608.2,54.76,682.45,16.15,818.79,128.2,985.13,257.94,1177.72,397.86,1385.43,595.13,1675.86,608,1936Z"/><path class="cls-2" d="M633.37,1862.33c-8.82-253.52-127.17-461.23-231.58-644.49-38.65-67.83-75.16-131.91-103.51-193.72-31.78-69.29-48.95-126.27-54-179.3C232,716.93,292.86,609,435.8,505.08c33.14-24.09,64.07-56.64,91.93-96.75,22.29-32.1,42.68-69.08,60.6-109.92,30.5-69.55,43.42-126.93,43.54-127.5l1,.22c-.13.57-13.06,58-43.6,127.66-17.94,40.9-38.36,77.95-60.69,110.1-27.93,40.21-58.93,72.84-92.17,97C293.76,609.56,233,717.22,245.24,844.72c5.07,52.92,22.22,109.79,53.95,179,28.33,61.78,64.83,125.83,103.47,193.65,104.47,183.36,222.88,391.18,231.7,644.94Z"/><path class="cls-3" d="M630.85,1865.87c-9.48-254.66-134.7-467.38-245.18-655C345.13,1142,306.85,1076.93,277,1014.43c-33.48-70.07-51.77-127.33-57.55-180.23-14-127.59,47.71-232.53,194.08-330.28,36.51-24.38,70.86-57.81,102.09-99.36,25-33.25,48.07-71.74,68.57-114.4,34.91-72.66,50.45-133,50.6-133.63l1,.24c-.15.61-15.71,61-50.66,133.8-20.53,42.73-43.63,81.28-68.67,114.58-31.3,41.65-65.74,75.16-102.35,99.6-146,97.52-207.55,202.17-193.64,329.34,5.77,52.78,24,109.95,57.46,179.91,29.84,62.46,68.12,127.47,108.64,196.31,110.54,187.78,235.83,400.61,245.32,655.53Z"/><path class="cls-4" d="M628.33,1869.41c-10.14-255.77-142.12-473.31-258.56-665.23-42.35-69.8-82.35-135.73-113.67-198.86C221,934.54,201.61,877,195.12,824.24c-15.65-127.3,46.66-229.44,196.11-321.47,39.95-24.6,77.76-58.86,112.39-101.83,27.72-34.39,53.46-74.39,76.52-118.91,39.28-75.81,57.37-139.25,57.55-139.89l1,.28c-.18.63-18.29,64.15-57.61,140.05-23.09,44.58-48.87,84.65-76.63,119.09-34.7,43.06-72.61,77.4-112.66,102.06-149.07,91.8-211.24,193.64-195.64,320.5,6.48,52.64,25.82,110.08,60.89,180.75,31.3,63.09,71.29,129,113.63,198.79,116.5,192,248.54,409.68,258.7,665.71Z"/><path class="cls-5" d="M625.81,1873C615,1616.1,476.34,1393.92,354,1197.89c-114.83-184-214-342.94-178.33-484,20.32-80.37,83.53-149.8,193.25-212.26,43.45-24.74,84.77-59.78,122.81-104.16,30.44-35.51,58.86-77,84.46-123.44,43.61-79,64.19-145.59,64.39-146.26l1,.3c-.21.66-20.82,67.35-64.47,146.45-25.64,46.45-54.1,88-84.58,123.6C454.4,442.58,413,477.69,369.43,502.49,260,564.81,196.91,634,176.66,714.12c-35.57,140.66,63.5,299.41,178.21,483.24C477.26,1393.49,616,1615.8,626.81,1872.92Z"/><path class="cls-6" d="M623.29,1876.5c-11.49-257.89-156.77-484.58-284.95-684.58C218.4,1004.77,114.81,843.14,151.64,703.45c20.64-78.27,84.43-144.67,195-203,47-24.79,91.85-60.55,133.31-106.31,33.17-36.62,64.26-79.68,92.4-128,47.9-82.25,70.92-152.1,71.15-152.8l1,.31c-.23.7-23.28,70.66-71.24,153-28.17,48.36-59.3,91.47-92.52,128.14-41.54,45.84-86.48,81.68-133.58,106.52-110.33,58.18-174,124.37-194.51,202.36C115.89,843,219.37,1004.43,339.18,1191.38c128.25,200.11,273.61,426.91,285.11,685.08Z"/><path class="cls-7" d="M620.78,1880.05c-12.18-258.9-164.07-489.95-298.08-693.81-125-190.07-232.87-354.22-195-492.47,20.89-76.34,85.23-139.95,196.68-194.45,50.58-24.74,99-61.17,143.88-108.29,35.91-37.71,69.67-82.3,100.32-132.54C620.75,173,646.16,99.74,646.41,99l1,.32c-.25.73-25.7,74.05-78,159.68C538.72,309.31,504.93,354,469,391.72c-45,47.2-93.47,83.71-144.16,108.5C213.62,554.59,149.46,618,128.64,694c-37.72,137.82,70.07,301.79,194.89,491.66,134.08,204,286.06,435.14,298.25,694.31Z"/><path class="cls-8" d="M618.26,1883.59c-12.86-259.86-171.37-495.15-311.21-702.75C177.16,988,65,821.52,103.73,684.74c21.12-74.56,86-135.58,198.34-186.57,54.2-24.6,106.18-61.64,154.5-110.09,38.66-38.78,75.08-84.9,108.24-137.1,56.46-88.89,84.24-165.59,84.51-166.35l.94.34c-.27.76-28.08,77.55-84.6,166.53C532.46,303.76,496,350,457.29,388.77c-48.41,48.55-100.49,85.66-154.81,110.31C190.42,549.94,125.72,610.75,104.69,685c-38.61,136.34,73.44,302.67,203.19,495.27C447.79,1388,606.38,1623.4,619.26,1883.54Z"/></svg>