<svg id="Layer_1" data-name="Layer 1" xmlns="http://www.w3.org/2000/svg" viewBox="0 0 474.88 103.68"><defs><style>.cls-1{fill:none;stroke:#c14e0e;stroke-miterlimit:10;stroke-width:1.5px;}.cls-2{fill:#c14e0e;}</style></defs><path class="cls-1" d="M71.08,78.48V95.32H3.57V81.92L38,49.38q5.49-5.24,7.4-9a16.27,16.27,0,0,0,1.92-7.46,9.87,9.87,0,0,0-3.64-8.23q-3.63-2.88-10.66-2.87a24.46,24.46,0,0,0-10.59,2.23,20.2,20.2,0,0,0-7.91,6.7L-.51,21.05A35.41,35.41,0,0,1,13.91,8.86,48.27,48.27,0,0,1,35,4.46,43.32,43.32,0,0,1,52.39,7.71,26.9,26.9,0,0,1,64,16.9a23.84,23.84,0,0,1,4.15,14,31.14,31.14,0,0,1-3.06,13.65Q62,50.92,53.22,59.08L32.67,78.48Z"/><path class="cls-1" d="M97.88,91.37A36.92,36.92,0,0,1,84.29,75.48q-4.91-10.41-4.91-24.82t4.91-24.82A36.87,36.87,0,0,1,97.88,10a36.22,36.22,0,0,1,19.78-5.49A36.17,36.17,0,0,1,137.44,10,36.82,36.82,0,0,1,151,25.84q4.91,10.4,4.91,24.82T151,75.48a36.88,36.88,0,0,1-13.6,15.89,36.17,36.17,0,0,1-19.78,5.48A36.22,36.22,0,0,1,97.88,91.37Zm32.61-19q4.65-7,4.66-21.69T130.49,29a14.61,14.61,0,0,0-12.83-7q-8,0-12.69,7t-4.66,21.7q0,14.67,4.66,21.69t12.69,7A14.61,14.61,0,0,0,130.49,72.35Z"/><path class="cls-1" d="M232,78.48V95.32H164.5V81.92L199,49.38q5.47-5.24,7.4-9a16.38,16.38,0,0,0,1.91-7.46q0-5.37-3.64-8.23T194,21.82a24.4,24.4,0,0,0-10.59,2.23,20.3,20.3,0,0,0-7.92,6.7l-15.05-9.7A35.28,35.28,0,0,1,174.84,8.86a48.19,48.19,0,0,1,21-4.4,43.28,43.28,0,0,1,17.42,3.25,26.93,26.93,0,0,1,11.62,9.19,23.83,23.83,0,0,1,4.14,14A31.14,31.14,0,0,1,226,44.53Q223,50.92,214.14,59.08L193.6,78.48Z"/><path class="cls-1" d="M275,6V95.32H254.34V22.58H236.47V6Z"/><path class="cls-2" d="M29,69.31H1.82v-.45a9,9,0,0,0,2.07-.57,4.3,4.3,0,0,0,1.57-1.11,2,2,0,0,0,.36-.78,11.6,11.6,0,0,0,.24-1.18,12,12,0,0,0,.16-1.4c0-.49,0-1,0-1.44s0-1,0-1.69,0-1.49,0-2.33,0-1.71,0-2.6V44.53c0-.54,0-1.09,0-1.65s0-1.09-.09-1.6A8.28,8.28,0,0,0,6,39.93a2.07,2.07,0,0,0-.42-.87,3.13,3.13,0,0,0-1.43-.91,19.35,19.35,0,0,0-1.95-.38v-.44H26.74l3,7.33-.45.22a21.5,21.5,0,0,0-6.75-6,10.63,10.63,0,0,0-2.8-.62,38.74,38.74,0,0,0-5-.27c-.62,0-1.27,0-1.93.07a13.64,13.64,0,0,0-1.44.15c-.07.48-.12,1.45-.16,2.94s-.07,3.19-.07,5.15V49.1c0,.77,0,1.4,0,1.89s0,.86,0,1.13v.49h.88c.45,0,1,0,1.54,0s1.15-.06,1.73-.11a9.07,9.07,0,0,0,1.44-.2,7.63,7.63,0,0,0,2.22-.84,4.92,4.92,0,0,0,1.45-1.29,6.54,6.54,0,0,0,.89-1.75,22.6,22.6,0,0,0,.6-2.25h.53v14H22a15.37,15.37,0,0,0-1.09-2.94,7.89,7.89,0,0,0-1.53-2.26,5.79,5.79,0,0,0-1.71-1,7.63,7.63,0,0,0-2.34-.49l-1.11-.07-.89,0h-2a13.64,13.64,0,0,0-.09,1.82v5.33c0,.47,0,.93,0,1.35s0,.8,0,1.09c0,1,.08,1.85.15,2.69a4.48,4.48,0,0,0,.51,1.89,2.85,2.85,0,0,0,1.91.89,19.86,19.86,0,0,0,3.29.26c.5,0,1.15,0,1.93,0s1.61-.11,2.47-.22a9.89,9.89,0,0,0,2.62-.69,9,9,0,0,0,2.31-1.45A14.81,14.81,0,0,0,28.58,64a32.57,32.57,0,0,0,2.16-3.27l.48.14Z"/><path class="cls-2" d="M66.51,38.62A3.85,3.85,0,0,0,65,40.53a7.36,7.36,0,0,0-.4,2.46q-.09,1.8-.18,3.84c-.06,1.28-.11,2.78-.15,4.51s-.07,3.59-.07,5.58v2.84c0,1,0,2.09,0,3.18s0,2.15,0,3.22V69a.36.36,0,0,1-.11.29.45.45,0,0,1-.33.11A1.25,1.25,0,0,1,63,69q-3.78-4.35-6.88-8t-5.93-7l-5.53-6.46q-2.72-3.15-5.73-6.53V59.8c0,1.51,0,2.88.11,4.09a7.41,7.41,0,0,0,.55,2.71,3.22,3.22,0,0,0,1.54,1.53,9,9,0,0,0,2.86.73v.45H33v-.45a8.33,8.33,0,0,0,2.14-.55,3.44,3.44,0,0,0,1.68-1.4,6,6,0,0,0,.8-2.75c.12-1.22.21-2.67.27-4.36.06-1.27.1-2.77.13-4.5s0-3.59,0-5.58V44.3c0-.59,0-1.31,0-2.17A5.1,5.1,0,0,0,37.44,40a4,4,0,0,0-1.15-1.29,4.66,4.66,0,0,0-1.45-.67,12.43,12.43,0,0,0-1.48-.29v-.44h9L63.42,61.94V46.83c0-1.18,0-2.31,0-3.39a8,8,0,0,0-.4-2.56,4.07,4.07,0,0,0-1.58-2,7.77,7.77,0,0,0-3.26-1.09v-.44h11v.44A6.67,6.67,0,0,0,66.51,38.62Z"/><path class="cls-2" d="M106.15,58.74A14.29,14.29,0,0,1,104,63.09a13.07,13.07,0,0,1-3.2,3A17.2,17.2,0,0,1,96.91,68a21.44,21.44,0,0,1-4.22,1,32.43,32.43,0,0,1-4.22.29H72.26v-.45a7.84,7.84,0,0,0,2.16-.57A4.17,4.17,0,0,0,76,67.22a1.54,1.54,0,0,0,.34-.75c.07-.36.14-.76.2-1.2s.1-.92.13-1.42,0-1,0-1.47,0-1,0-1.69,0-1.49,0-2.33,0-1.71,0-2.6V42.93c0-.54,0-1-.06-1.49a9.76,9.76,0,0,0-.2-1.24,2.14,2.14,0,0,0-.4-.87,3.5,3.5,0,0,0-1.6-1.11,10.24,10.24,0,0,0-2.09-.45v-.44l5.38,0c2.33,0,5.16,0,8.48,0h2.84c1,0,2,0,2.93.13a26.56,26.56,0,0,1,2.93.44,15.43,15.43,0,0,1,2.89.93,17.22,17.22,0,0,1,3.51,2.05,13.35,13.35,0,0,1,2.86,2.95,14.36,14.36,0,0,1,2,4,16.42,16.42,0,0,1,.73,5.13A19.58,19.58,0,0,1,106.15,58.74ZM100.69,48a15.81,15.81,0,0,0-2.22-4.42,14.19,14.19,0,0,0-3.38-3.36,10.24,10.24,0,0,0-4.26-1.77c-.59-.12-1.25-.22-2-.29A24.57,24.57,0,0,0,86.25,38c-.35,0-.74,0-1.15,0a12.07,12.07,0,0,0-1.22.09l-1.11.11a4.4,4.4,0,0,0-.82.13q-.23,2.17-.27,6c0,2.54-.05,5.58-.05,9.1v5.2c0,1.54,0,2.8.05,3.77a13.33,13.33,0,0,0,.07,1.36c0,.49.09,1,.15,1.42a6.1,6.1,0,0,0,.29,1.24,2.21,2.21,0,0,0,.47.83A4.1,4.1,0,0,0,84.9,68.4a14.6,14.6,0,0,0,2.55.24,22.48,22.48,0,0,0,2.29-.11,10.72,10.72,0,0,0,2.2-.42,11.76,11.76,0,0,0,7.17-5.35,18.75,18.75,0,0,0,2.38-9.8A16.06,16.06,0,0,0,100.69,48Z"/><path class="cls-2" d="M150.88,59.67a16.65,16.65,0,0,1-3.62,5.24,16.13,16.13,0,0,1-5.33,3.42,17.5,17.5,0,0,1-6.47,1.2,17.31,17.31,0,0,1-6.39-1.18A15.84,15.84,0,0,1,123.78,65a15.54,15.54,0,0,1-3.57-5.15,16.19,16.19,0,0,1-1.31-6.59,16.62,16.62,0,0,1,1.37-6.87A15.53,15.53,0,0,1,124,41.26,16.23,16.23,0,0,1,129.45,38,19.06,19.06,0,0,1,136,36.89a16.43,16.43,0,0,1,6.77,1.33,15.46,15.46,0,0,1,5.09,3.57A15.7,15.7,0,0,1,151.1,47a17.12,17.12,0,0,1,1.11,6.13A16.21,16.21,0,0,1,150.88,59.67Zm-4.87-12a17.16,17.16,0,0,0-2.09-5A11.88,11.88,0,0,0,140.44,39a8.67,8.67,0,0,0-4.93-1.4,8.86,8.86,0,0,0-5,1.4,11.41,11.41,0,0,0-3.46,3.62,16.61,16.61,0,0,0-2,5,25.5,25.5,0,0,0-.64,5.71,23.31,23.31,0,0,0,.71,5.82,15.94,15.94,0,0,0,2.11,4.93,11.09,11.09,0,0,0,3.5,3.42,9.24,9.24,0,0,0,4.91,1.28,8.31,8.31,0,0,0,4.86-1.42A12,12,0,0,0,144,63.78a17.68,17.68,0,0,0,2.06-5,23.33,23.33,0,0,0,.69-5.6A22.39,22.39,0,0,0,146,47.68Z"/><path class="cls-2" d="M183,45a42.33,42.33,0,0,0-3.47-3.86,12.67,12.67,0,0,0-3.19-2.36,10.53,10.53,0,0,0-2.74-.59A36.33,36.33,0,0,0,169,38l-1,0-1.11.05-1,0c-.31,0-.54,0-.69,0,0,.18-.07.36-.11.54a4.12,4.12,0,0,0-.11.62c0,.24-.06.54-.09.91s-.06.82-.09,1.35c0,1-.05,2.17-.07,3.4s0,2.39,0,3.49v4.22h.8c.47,0,1,0,1.58,0s1.17-.06,1.79-.11a10.72,10.72,0,0,0,1.56-.2,7.91,7.91,0,0,0,2.53-.93,4.65,4.65,0,0,0,1.47-1.38,5.36,5.36,0,0,0,.75-1.75c.15-.64.28-1.32.4-2.07h.53V60.43h-.53a21.29,21.29,0,0,0-1-3A6.71,6.71,0,0,0,173,55a5.78,5.78,0,0,0-1.8-1.13,7.27,7.27,0,0,0-2.24-.47l-1.16-.07-.93,0h-2.13v5.51c0,.83,0,1.59,0,2.28s0,1.3,0,1.8c0,1,.09,1.85.16,2.69a4.2,4.2,0,0,0,.51,1.89,2.56,2.56,0,0,0,1.35,1,10.24,10.24,0,0,0,2.78.42v.45H155.32v-.45a8.78,8.78,0,0,0,2.06-.57A4.34,4.34,0,0,0,159,67.18a2,2,0,0,0,.36-.78c.08-.34.17-.73.24-1.18a12,12,0,0,0,.15-1.4c0-.49,0-1,0-1.44s0-1,0-1.69,0-1.49.05-2.33,0-1.71,0-2.6V44.53c0-.54,0-1.09,0-1.65s-.05-1.09-.09-1.6a9.52,9.52,0,0,0-.22-1.35,2,2,0,0,0-.43-.87,3.11,3.11,0,0,0-1.42-.91,19.35,19.35,0,0,0-1.95-.38v-.44h24.69l3,7.46Z"/><path class="cls-2" d="M220.12,38.4a7,7,0,0,0-1.65,1.15A11.18,11.18,0,0,0,217,41.24c-.46.65-.95,1.39-1.49,2.22-.35.56-.85,1.33-1.48,2.29s-1.29,2-2,3l-1.93,3q-.93,1.43-1.47,2.22v8.93c0,.86,0,1.69.07,2.51a3.41,3.41,0,0,0,.42,1.71,3.15,3.15,0,0,0,1.73,1.29,20,20,0,0,0,2.05.48v.45H199.29v-.45a9.69,9.69,0,0,0,2-.42,4.51,4.51,0,0,0,1.84-1.4,1.42,1.42,0,0,0,.33-.75,9.53,9.53,0,0,0,.18-1.2c.05-.45.08-.92.09-1.42s0-1,0-1.47c0-.83,0-1.81.07-3s0-2.53,0-4.15c-.06-.09-.24-.37-.53-.85s-.66-1.06-1.09-1.75l-1.42-2.33c-.52-.86-1-1.7-1.53-2.51l-1.42-2.29c-.45-.71-.82-1.29-1.11-1.73-.57-.86-1.08-1.65-1.54-2.36a12.75,12.75,0,0,0-1.4-1.82,8.12,8.12,0,0,0-1.39-1.2,3.23,3.23,0,0,0-1.58-.49v-.44h13.46v.44c-.45,0-.89.08-1.34.14a5.92,5.92,0,0,0-1.24.29,2.45,2.45,0,0,0-.93.53,1.17,1.17,0,0,0-.36.91,4.26,4.26,0,0,0,.65,1.75c.42.79.88,1.58,1.35,2.38.33.53.71,1.18,1.16,1.93s.93,1.56,1.46,2.4,1.07,1.71,1.62,2.6,1.06,1.73,1.53,2.53c.39-.56.86-1.28,1.43-2.15l1.71-2.67,1.64-2.6c.52-.83.91-1.48,1.18-2l.49-.82c.17-.31.34-.64.51-1a10.28,10.28,0,0,0,.42-1,3.1,3.1,0,0,0,.18-1,1.61,1.61,0,0,0-.36-1.11,2.38,2.38,0,0,0-.91-.62,6.21,6.21,0,0,0-1.22-.34l-1.29-.2v-.44h10.26v.44A6.85,6.85,0,0,0,220.12,38.4Z"/><path class="cls-2" d="M249.79,69.31H222.61v-.45a9.06,9.06,0,0,0,2.06-.57,4.34,4.34,0,0,0,1.58-1.11,2,2,0,0,0,.35-.78c.09-.34.17-.73.25-1.18s.12-.91.15-1.4.05-1,.05-1.44,0-1,0-1.69,0-1.49,0-2.33,0-1.71,0-2.6V44.53q0-.81,0-1.65c0-.56,0-1.09-.09-1.6a7.32,7.32,0,0,0-.22-1.35,1.86,1.86,0,0,0-.42-.87,3.11,3.11,0,0,0-1.42-.91,19.63,19.63,0,0,0-2-.38v-.44h24.52l3,7.33-.44.22a21.72,21.72,0,0,0-6.75-6,10.85,10.85,0,0,0-2.8-.62,38.8,38.8,0,0,0-5-.27c-.62,0-1.26,0-1.93.07a14,14,0,0,0-1.44.15c-.06.48-.11,1.45-.16,2.94S232,44.3,232,46.26V49.1c0,.77,0,1.4,0,1.89s0,.86,0,1.13v.49h.89c.44,0,1,0,1.53,0s1.16-.06,1.73-.11a9.39,9.39,0,0,0,1.45-.2,7.63,7.63,0,0,0,2.22-.84,5,5,0,0,0,1.44-1.29,6.26,6.26,0,0,0,.89-1.75,22.6,22.6,0,0,0,.6-2.25h.53v14h-.53a15.37,15.37,0,0,0-1.09-2.94,7.89,7.89,0,0,0-1.53-2.26,5.67,5.67,0,0,0-1.71-1,7.56,7.56,0,0,0-2.33-.49L235,53.34l-.89,0h-2a13.64,13.64,0,0,0-.09,1.82v5.33c0,.47,0,.93,0,1.35s0,.8,0,1.09c0,1,.08,1.85.16,2.69a4.2,4.2,0,0,0,.51,1.89,2.8,2.8,0,0,0,1.91.89,19.65,19.65,0,0,0,3.28.26c.51,0,1.15,0,1.94,0s1.6-.11,2.46-.22a9.79,9.79,0,0,0,2.62-.69,9,9,0,0,0,2.31-1.45A14.85,14.85,0,0,0,249.37,64a32.63,32.63,0,0,0,2.15-3.27l.49.14Z"/><path class="cls-2" d="M272.08,69.31v-.45a4.51,4.51,0,0,0,.65-.08,5.28,5.28,0,0,0,1.06-.32,2.87,2.87,0,0,0,1-.62,1.33,1.33,0,0,0,.42-1,5.91,5.91,0,0,0-.24-1.31q-.24-.92-.69-2.22t-1-2.91c-.39-1.06-.8-2.17-1.24-3.33H260.18c-.44,1.13-.87,2.2-1.29,3.22s-.83,2-1.24,3.09a11.25,11.25,0,0,0-.93,3.37,1.32,1.32,0,0,0,.35,1,2.76,2.76,0,0,0,.91.62,5.06,5.06,0,0,0,1.2.35c.43.08.84.15,1.22.2v.45h-9.46v-.49a5.07,5.07,0,0,0,2-.62,4.34,4.34,0,0,0,1-.67,8.73,8.73,0,0,0,1-1.46,30.56,30.56,0,0,0,1.74-3.42c.62-1.4,1.31-3,2.08-4.76s1.57-3.6,2.38-5.48,1.62-3.78,2.42-5.69,1.56-3.69,2.27-5.35l-.45-1a6.63,6.63,0,0,0,1.45-.84,9.44,9.44,0,0,0,1.13-1,10.78,10.78,0,0,0,.82-1c.22-.33.39-.59.51-.8h.36c.91,2.46,1.79,4.79,2.62,7s1.62,4.33,2.37,6.38l2.2,5.93c.71,1.91,1.42,3.79,2.13,5.66.33.92.63,1.68.91,2.29s.6,1.29,1,2.06a5.08,5.08,0,0,0,.4.62,5.56,5.56,0,0,0,.82.91,4.82,4.82,0,0,0,1.27.83,4.71,4.71,0,0,0,1.77.4v.53Zm-5.81-26.92c-.18.39-.44,1-.78,1.82s-.76,1.84-1.27,3-1.06,2.53-1.66,4l-2,4.87h11.06c-.5-1.33-1-2.67-1.53-4s-1-2.61-1.51-3.84-.94-2.36-1.34-3.38Z"/><path class="cls-2" d="M309.92,69.31c-.26-.27-.46-.47-.57-.6s-.26-.29-.4-.47a7.13,7.13,0,0,1-.56-.78c-.22-.34-.57-.84-1-1.53s-1.06-1.57-1.49-2.24-.87-1.32-1.31-2-.93-1.31-1.44-2-1.14-1.42-1.85-2.25a18.33,18.33,0,0,0-1.93-1.91,4.79,4.79,0,0,0-2.2-1.11,7.35,7.35,0,0,0-1.29-.17c-.26,0-.6,0-1,0v5c0,1.42,0,2.62.05,3.6s.06,1.76.09,2.44a3.24,3.24,0,0,0,.49,1.69,3.88,3.88,0,0,0,1.37,1.18,6.15,6.15,0,0,0,2.85.68v.45H285.45v-.45a11.44,11.44,0,0,0,2.13-.53,3.49,3.49,0,0,0,1.6-1.06,2.06,2.06,0,0,0,.36-.8,9.37,9.37,0,0,0,.2-1.2c0-.45.08-.92.11-1.42s0-1,0-1.47,0-1,0-1.69,0-1.49,0-2.33,0-1.71,0-2.6V44.53c0-.54,0-1.08,0-1.63s0-1.06-.09-1.55a8.2,8.2,0,0,0-.22-1.33,2,2,0,0,0-.42-.87,3.36,3.36,0,0,0-1.49-.95,14,14,0,0,0-2-.43v-.44h1.82l3.42,0c1.27,0,2.55,0,3.82,0h3.11c2,0,3.74.06,5.28.17a10.59,10.59,0,0,1,4.22,1.2,8.51,8.51,0,0,1,3.16,2.78,7.65,7.65,0,0,1,1.2,4.42,7,7,0,0,1-.6,3,7.83,7.83,0,0,1-1.6,2.31,9.66,9.66,0,0,1-2.34,1.71,17.77,17.77,0,0,1-2.79,1.2v.13a5.64,5.64,0,0,1,1.46,1.16A14,14,0,0,1,307.26,57l2.51,3.64c.9,1.3,1.71,2.46,2.42,3.46a13.65,13.65,0,0,0,3.2,3.38A8.45,8.45,0,0,0,319,68.86v.45Zm-4.39-27.67a7.7,7.7,0,0,0-3.24-2.76,10.16,10.16,0,0,0-2.25-.71,13.89,13.89,0,0,0-2.46-.22c-.62,0-1.13,0-1.51,0l-.89.08c0,.18-.06.34-.09.47a4.51,4.51,0,0,0-.07.51c0,.21,0,.5,0,.87s0,.89-.07,1.57q0,1.56-.06,3.51t0,3.78v4.88c1.22,0,2.35-.05,3.4-.15a13.92,13.92,0,0,0,3-.64,8.48,8.48,0,0,0,2.45-1.2,7,7,0,0,0,2.62-3.78,8.82,8.82,0,0,0,.31-2.31A7.15,7.15,0,0,0,305.53,41.64Z"/><path class="cls-2" d="M350.72,64.38a8.77,8.77,0,0,1-2.4,2.89A10.23,10.23,0,0,1,344.66,69a17.62,17.62,0,0,1-4.67.58,22.19,22.19,0,0,1-3.73-.27,14.33,14.33,0,0,1-2.57-.64,8.73,8.73,0,0,1-1.54-.69,1.89,1.89,0,0,0-.64-.31c-.09,0-.28.18-.58.53s-.56.7-.8,1h-.4l-.13-8.83H330a14.51,14.51,0,0,0,1,2.33,19.22,19.22,0,0,0,1.35,2.13A12.15,12.15,0,0,0,334,66.64a7.81,7.81,0,0,0,1.58,1.16,13.52,13.52,0,0,0,2,.8,8,8,0,0,0,2.4.4,7.76,7.76,0,0,0,5.33-1.8,6.15,6.15,0,0,0,2-4.86,5.44,5.44,0,0,0-.4-2.18,5,5,0,0,0-1.09-1.62,6.75,6.75,0,0,0-1.62-1.18,19.42,19.42,0,0,0-2-.89c-.71-.26-1.33-.49-1.86-.66l-1.49-.51c-.46-.17-.93-.33-1.42-.49s-1.07-.38-1.76-.65a9.32,9.32,0,0,1-2.22-1.22,8.92,8.92,0,0,1-1.86-1.82,9.46,9.46,0,0,1-1.29-2.31,7.3,7.3,0,0,1-.49-2.69A9,9,0,0,1,330.7,42a8.47,8.47,0,0,1,2.35-2.88,10,10,0,0,1,3.41-1.71,14.66,14.66,0,0,1,4.07-.56,15.36,15.36,0,0,1,3.42.33,14.34,14.34,0,0,1,2.33.74,7.83,7.83,0,0,1,1.37.73,3.36,3.36,0,0,0,.52.33c.08,0,.27-.18.55-.53s.54-.71.78-1.06H350v8.21h-.49a18.3,18.3,0,0,0-1.38-2.91,12.88,12.88,0,0,0-1.95-2.57,9.47,9.47,0,0,0-2.54-1.85,7,7,0,0,0-3.15-.71,8.52,8.52,0,0,0-2.6.4,6.2,6.2,0,0,0-2.13,1.2,5.4,5.4,0,0,0-1.42,2,6.67,6.67,0,0,0-.51,2.68,5.11,5.11,0,0,0,1.42,3.78,10.14,10.14,0,0,0,3.67,2.27c.59.23,1.15.44,1.67.62l1.52.51q.76.24,1.53.51l1.62.58a10.22,10.22,0,0,1,4.67,3.22,9.06,9.06,0,0,1,.8,9.08Z"/><path class="cls-2" d="M377.79,69.31v-.45a8.55,8.55,0,0,0,2.75-.6,3.05,3.05,0,0,0,1.47-1,1.42,1.42,0,0,0,.15-.53q.07-.41.12-.93c0-.36.05-.73.06-1.12s0-.75,0-1.1c0-1,.05-2,.05-3v-7H364.86v9.55c0,.86,0,1.68.05,2.48a3.15,3.15,0,0,0,.4,1.69,3.37,3.37,0,0,0,1.51,1.16,6.61,6.61,0,0,0,1.91.48v.45h-13.1v-.45a8.65,8.65,0,0,0,2.13-.6,3.9,3.9,0,0,0,1.55-1,1.75,1.75,0,0,0,.29-.73c.07-.34.13-.73.18-1.18s.08-.92.11-1.44,0-1,0-1.49,0-1,0-1.69,0-1.49,0-2.33,0-1.71,0-2.6V42.93c0-.54,0-1-.06-1.49a9.76,9.76,0,0,0-.2-1.24,2.14,2.14,0,0,0-.4-.87,3.57,3.57,0,0,0-1.54-1.09,9.05,9.05,0,0,0-2.06-.47v-.44H369v.44a13.25,13.25,0,0,0-1.34.27,4,4,0,0,0-1.28.56,3.07,3.07,0,0,0-1,1,3.51,3.51,0,0,0-.45,1.69c0,1-.05,2.15-.06,3.35s0,2.35,0,3.44v4.49h17.55V45.46c0-.77,0-1.65-.05-2.62,0-.56-.06-1.15-.11-1.76a3.15,3.15,0,0,0-.42-1.48A3.29,3.29,0,0,0,380,38.11a9.06,9.06,0,0,0-2-.34v-.44h13.37v.44a7.12,7.12,0,0,0-2.09.6,3.15,3.15,0,0,0-1.51,1.36,2.56,2.56,0,0,0-.27.86c-.06.37-.1.79-.13,1.25s0,.92,0,1.4V57.76q0,1.25,0,2.58c0,.88,0,1.86,0,2.93,0,.86,0,1.65.07,2.37a3.16,3.16,0,0,0,.33,1.49,3.07,3.07,0,0,0,1.55,1.25,9.23,9.23,0,0,0,2.13.48v.45Z"/><path class="cls-2" d="M426.91,59.67a16.49,16.49,0,0,1-3.62,5.24A15.93,15.93,0,0,1,418,68.33a18,18,0,0,1-12.86,0A15.9,15.9,0,0,1,399.82,65a15.72,15.72,0,0,1-3.58-5.15,17.51,17.51,0,0,1,.07-13.46A15.39,15.39,0,0,1,400,41.26,16.09,16.09,0,0,1,405.48,38a19.15,19.15,0,0,1,6.6-1.13,16.49,16.49,0,0,1,6.77,1.33A15.21,15.21,0,0,1,427.13,47a17.13,17.13,0,0,1,1.12,6.13A16,16,0,0,1,426.91,59.67Zm-4.86-12a17.43,17.43,0,0,0-2.09-5A11.8,11.8,0,0,0,416.47,39a8.65,8.65,0,0,0-4.93-1.4,8.83,8.83,0,0,0-5,1.4,11.44,11.44,0,0,0-3.47,3.62,16.87,16.87,0,0,0-2,5,26.1,26.1,0,0,0-.64,5.71,23.79,23.79,0,0,0,.71,5.82,16.18,16.18,0,0,0,2.11,4.93,11,11,0,0,0,3.51,3.42,9.22,9.22,0,0,0,4.91,1.28,8.36,8.36,0,0,0,4.86-1.42A11.83,11.83,0,0,0,420,63.78a17.7,17.7,0,0,0,2.07-5,23.33,23.33,0,0,0,.69-5.6A22.39,22.39,0,0,0,422.05,47.68Z"/><path class="cls-2" d="M473,38.4a4.22,4.22,0,0,0-.91.66c-.09.09-.22.24-.4.45a7.28,7.28,0,0,0-.62.86,12.64,12.64,0,0,0-.76,1.42q-.39.87-.84,2.16-.7,2.17-1.64,4.82t-1.89,5.44c-.64,1.86-1.28,3.74-1.93,5.62s-1.26,3.66-1.82,5.35l-1.87,4.26h-.44q-1.2-3.19-2.25-6.13c-.69-2-1.36-3.83-2-5.64s-1.25-3.56-1.85-5.26-1.2-3.38-1.82-5c-.47,1.36-1,2.79-1.51,4.28s-1.06,3-1.6,4.56-1.06,3-1.6,4.55l-1.55,4.33-1.95,4.35h-.54c-.92-2.4-1.78-4.68-2.6-6.84l-2.35-6.24q-1.14-3-2.2-5.82l-2.13-5.62c-.21-.56-.39-1.05-.56-1.46s-.31-.8-.44-1.16-.27-.69-.42-1-.31-.66-.49-1c-.09-.18-.22-.4-.38-.66a3.07,3.07,0,0,0-.69-.78,4.58,4.58,0,0,0-1.06-.67,4.38,4.38,0,0,0-1.6-.33v-.49h12.52v.44a5.26,5.26,0,0,0-.75.09,6.19,6.19,0,0,0-1.11.31,2.63,2.63,0,0,0-1,.67,1.69,1.69,0,0,0-.42,1.2,8.24,8.24,0,0,0,.46,1.84c.31,1,.72,2.13,1.22,3.51s1.06,2.88,1.67,4.51,1.21,3.23,1.82,4.82l1.71,4.44c.53,1.38,1,2.51,1.29,3.4l.67-1.85c.35-1,.8-2.23,1.33-3.73s1.12-3.18,1.77-5.06,1.31-3.84,2-5.88c-.45-1.19-.85-2.23-1.2-3.14s-.74-1.78-1.15-2.64a5.36,5.36,0,0,0-.47-.75,3.5,3.5,0,0,0-.8-.78,4.3,4.3,0,0,0-1.27-.62,7,7,0,0,0-1.82-.29v-.49h13.9v.44l-.95.14a6.92,6.92,0,0,0-1.38.33,4.07,4.07,0,0,0-1.24.69,1.37,1.37,0,0,0-.56,1.11,11.48,11.48,0,0,0,.49,1.8c.33,1,.74,2.26,1.25,3.73s1.06,3.06,1.68,4.77,1.22,3.37,1.78,5,1.07,3,1.53,4.26.79,2.17,1,2.73c.09-.21.25-.64.47-1.31s.5-1.48.84-2.44.71-2,1.11-3.22.8-2.39,1.2-3.62L467,48c.4-1.23.76-2.38,1.09-3.44a17.84,17.84,0,0,0,.71-3c.06-.62.09-1.08.09-1.37a1.54,1.54,0,0,0-.4-1.09,3.43,3.43,0,0,0-1-.71,6.08,6.08,0,0,0-1.24-.45,9.34,9.34,0,0,0-1.2-.2v-.44h9.77v.44A4.5,4.5,0,0,0,473,38.4Z"/></svg>