<svg id="Layer_1" data-name="Layer 1" xmlns="http://www.w3.org/2000/svg" viewBox="0 0 1043 2403"><defs><style>.cls-1{fill:none;stroke:#c14e0e;stroke-miterlimit:10;}</style></defs><path class="cls-1" d="M-7.35,2372c0-277.35,471.13-697,471.13-1126.81s42.58-1185,671.22-1185"/><path class="cls-1" d="M-3.2,2358.8c-3.3-277.14,462.47-703.11,457.35-1132.6S482.58,41.45,1110.73,32.57"/><path class="cls-1" d="M1,2345.61c-6.61-276.93,453.8-709.24,443.56-1138.41S458.79,22.75,1086.47,5"/><path class="cls-1" d="M5.11,2332.41C-4.8,2055.69,450.25,1617.05,434.88,1188.2S435,4.06,1062.2-22.58"/><path class="cls-1" d="M9.26,2319.21c-13.22-276.51,436.48-721.48,416-1150S411.21-14.64,1037.94-50.16"/><path class="cls-1" d="M13.42,2306c-16.53-276.29,427.81-727.61,402.2-1155.8S387.42-33.34,1013.67-77.74"/><path class="cls-1" d="M17.57,2292.82C-2.26,2016.73,436.72,1559.08,406,1131.22S363.64-52,989.4-105.31"/><path class="cls-1" d="M21.72,2279.62c-23.13-275.87,410.49-739.86,374.63-1167.4S339.85-70.73,965.14-132.89"/><path class="cls-1" d="M25.88,2266.42c-26.44-275.66,401.82-746,360.84-1173.2S316.06-89.43,940.87-160.47"/><path class="cls-1" d="M30,2253.23c-29.75-275.46,393.16-752.12,347.06-1179S292.27-108.12,916.61-188"/></svg>