<svg id="Layer_1" data-name="Layer 1" xmlns="http://www.w3.org/2000/svg" xmlns:xlink="http://www.w3.org/1999/xlink" viewBox="0 0 600 491"><defs><style>.cls-1{fill:url(#linear-gradient);}</style><linearGradient id="linear-gradient" x1="600" y1="186.44" x2="36.63" y2="186.44" gradientUnits="userSpaceOnUse"><stop offset="0" stop-color="#c14e0e" stop-opacity="0.9"/><stop offset="0.15" stop-color="#c14e0e" stop-opacity="0.87"/><stop offset="0.36" stop-color="#c14e0e" stop-opacity="0.77"/><stop offset="0.61" stop-color="#c14e0e" stop-opacity="0.62"/><stop offset="0.88" stop-color="#c14e0e" stop-opacity="0.4"/><stop offset="1" stop-color="#c14e0e" stop-opacity="0.3"/></linearGradient></defs><path class="cls-1" d="M422.28,371.87C471.44,371.42,530,357.09,600,328.29v1.08c-70,28.74-128.52,43.05-177.71,43.5H419.9c-52.82,0-93.66-16.41-124.78-50.14-41.26-44.7-63.7-97.47-85.39-148.51C191.82,132.12,174.91,92.35,148.82,61,120.24,26.71,84.51,7.27,36.63,0h6.21C88,8,122.06,27.33,149.59,60.39c26.19,31.44,43.12,71.27,61.06,113.45,21.66,51,44.06,103.65,85.2,148.22C327.24,356.08,368.61,372.41,422.28,371.87ZM309.46,291c-41.14-44.57-63.54-97.27-85.21-148.22-17.93-42.18-34.87-82-61.05-113.45A174.38,174.38,0,0,0,132.32,0h-1.71a172.61,172.61,0,0,1,31.82,29.94c26.09,31.32,43,71.09,60.9,113.2,21.7,51,44.14,103.81,85.4,148.51,31.12,33.73,72,50.14,124.78,50.14h2.39c46-.43,100.11-12.94,164.1-38v-1.07c-64,25.14-118.17,37.67-164.11,38.1C382.22,341.29,340.85,325,309.46,291Zm5.1-11.66C273.43,234.74,251,182,229.36,131.09c-17.93-42.18-34.87-82-61.05-113.45A185.24,185.24,0,0,0,151.57,0H150.1a182.91,182.91,0,0,1,17.44,18.28c26.09,31.32,43,71.09,60.9,113.2,21.7,51,44.13,103.81,85.39,148.51,31.13,33.73,72,50.14,124.78,50.14H441c44.74-.42,97.23-12.29,159-36.05V293c-61.8,23.81-114.3,35.71-159,36.12C387.34,329.65,346,313.33,314.56,279.31Zm6.61-4.52C280,230.22,257.63,177.53,236,126.57,218,84.39,201.1,44.55,174.91,13.12q-5.79-7-12-13.12h-1.43a186.17,186.17,0,0,1,12.68,13.76c26.08,31.32,43,71.09,60.9,113.2,21.7,51,44.13,103.81,85.39,148.51,31.12,33.73,72,50.14,124.78,50.14h2.39c43.14-.4,93.48-11.45,152.39-33.54V291c-59,22.14-109.29,33.21-152.4,33.61C393.93,325.13,352.56,308.81,321.17,274.79Zm6.61-4.51c-41.14-44.58-63.54-97.27-85.2-148.23C224.64,79.88,207.71,40,181.52,8.6Q177.8,4.13,173.9,0h-1.36q4.2,4.43,8.21,9.24c26.09,31.32,43,71.1,60.91,113.2,21.69,51,44.13,103.81,85.39,148.52,31.12,33.72,72,50.14,124.78,50.14h2.39c41.52-.39,89.7-10.64,145.78-31.1v-1.06c-56.11,20.5-104.3,30.77-145.79,31.16C400.55,320.6,359.17,304.29,327.78,270.28Zm6.61-4.52c-41.14-44.58-63.54-97.27-85.21-148.22-17.93-42.18-34.87-82-61.05-113.46Q186.39,2,184.62,0h-1.34c1.38,1.55,2.74,3.11,4.08,4.72,26.09,31.33,43,71.1,60.9,113.21,21.7,51,44.14,103.81,85.39,148.51,31.13,33.72,72,50.14,124.79,50.14h2.39c39.88-.37,85.9-9.84,139.17-28.71V286.8c-53.3,18.92-99.33,28.4-139.18,28.77C407.14,316.08,365.78,299.77,334.39,265.76ZM254.87,113.41c21.7,51,44.14,103.81,85.39,148.51,31.13,33.73,72,50.14,124.78,50.14h2.4c38.22-.35,82.08-9.06,132.56-26.41v-1.05C549.49,302,505.62,310.7,467.43,311.05c-53.7.54-95-15.79-126.43-49.81C299.86,216.67,277.46,164,255.79,113c-17.85-42-34.72-81.65-60.7-113h-1.3l.18.21C220.06,31.53,237,71.3,254.87,113.41Zm92,144c31.13,33.73,72,50.14,124.78,50.14h2.4c36.54-.34,78.24-8.32,126-24.17V282.3c-47.73,15.89-89.44,23.89-126,24.23-53.68.53-95-15.79-126.43-49.81-41.14-44.57-63.54-97.26-85.21-148.22-17-40-33.13-77.88-57.08-108.5H204c24.15,30.63,40.36,68.68,57.45,108.89C283.18,159.93,305.62,212.7,346.87,257.4Z"/></svg>