<svg id="Layer_1" data-name="Layer 1" xmlns="http://www.w3.org/2000/svg" viewBox="0 0 573 745"><defs><style>.cls-1{fill:none;stroke:#c14e0e;stroke-miterlimit:10;}</style></defs><path class="cls-1" d="M595,478.74C360,509.3,269.52,458.62,235.61,382.93,169.45,235.26,247.56,71.26,90.18-7.08"/><path class="cls-1" d="M617.76,453.6c-234.94,30.56-325.43-20.12-359.35-95.81C192.25,210.12,270.36,46.12,113-32.22"/><path class="cls-1" d="M626.31,444.18C391.37,474.74,300.88,424.06,267,348.36c-66.16-147.67,11.94-311.67-145.44-390"/><path class="cls-1" d="M634,442c-234.93,30.56-325.43-20.12-359.34-95.82-66.16-147.67,11.95-311.67-145.44-390"/><path class="cls-1" d="M641.72,439.82C406.78,470.38,316.28,419.7,282.37,344,216.21,196.33,294.32,32.34,136.94-46"/><path class="cls-1" d="M649.42,437.64C414.48,468.2,324,417.52,290.08,341.83,223.92,194.16,302,30.16,144.64-48.18"/><path class="cls-1" d="M657.12,435.47C422.19,466,331.69,415.35,297.78,339.65,231.62,192,309.73,28,152.34-50.36"/><path class="cls-1" d="M664.82,433.29c-234.93,30.56-325.43-20.12-359.34-95.82C239.32,189.8,317.43,25.8,160.05-52.53"/></svg>