<svg id="Layer_1" data-name="Layer 1" xmlns="http://www.w3.org/2000/svg" viewBox="0 0 1185 1149"><defs><style>.cls-1{fill:none;stroke:#c14e0e;stroke-miterlimit:10;}</style></defs><path class="cls-1" d="M-5.59,843c423.77,55.12,587-36.29,648.17-172.83C761.91,403.8,621,108,904.91-33.32"/><path class="cls-1" d="M-46.72,797.64c423.76,55.13,587-36.29,648.17-172.82C720.78,358.45,579.89,62.64,863.78-78.66"/><path class="cls-1" d="M-62.15,780.64c423.77,55.12,587-36.29,648.17-172.83C705.36,341.44,564.47,45.63,848.35-95.67"/><path class="cls-1" d="M-76,776.71c423.76,55.12,587-36.29,648.17-172.82C691.46,337.52,550.57,41.7,834.46-99.6"/><path class="cls-1" d="M-89.94,772.78c423.77,55.13,587-36.29,648.17-172.82C677.57,333.59,536.68,37.78,820.56-103.52"/><path class="cls-1" d="M-103.83,768.85C319.94,824,483.17,732.56,544.34,596,663.67,329.66,522.78,33.85,806.67-107.45"/><path class="cls-1" d="M-117.73,764.93c423.77,55.12,587-36.29,648.17-172.83C649.78,325.73,508.89,29.92,792.77-111.38"/><path class="cls-1" d="M-131.62,761c423.77,55.12,587-36.29,648.17-172.83C635.89,321.81,495,26,778.88-115.31"/></svg>