<svg id="Layer_1" data-name="Layer 1" xmlns="http://www.w3.org/2000/svg" viewBox="0 0 859 1107"><defs><style>.cls-1{fill:none;stroke:#c14e0e;stroke-miterlimit:10;}</style></defs><path class="cls-1" d="M735.77-97.4c-200.58,171.15,85.71,384.28-120.17,560C338.86,698.71-21,617.07-45.7,947.84"/><path class="cls-1" d="M754.77-78.4c-200.58,171.15,85.71,384.28-120.17,560C357.86,717.71-2,636.07-26.7,966.84"/><path class="cls-1" d="M772.22-65.34C569.55,103.15,853,319.84,644.93,492.8,365.3,725.29,6.67,639.08-22.27,969.36"/><path class="cls-1" d="M789.67-52.29C584.9,113.55,865.44,333.81,655.26,504,372.74,732.86,15.34,642.08-17.83,971.88"/><path class="cls-1" d="M807.12-39.23C600.26,124,877.92,347.77,665.6,515.28,380.18,740.44,24,645.08-13.39,974.41"/><path class="cls-1" d="M824.57-26.18c-209,160.53,65.84,387.92-148.64,552.7C387.62,748,32.67,648.09-8.95,976.93"/><path class="cls-1" d="M842-13.12C631,144.75,902.89,375.7,686.26,537.76,395.06,755.59,41.33,651.09-4.51,979.45"/><path class="cls-1" d="M859.47-.07C646.32,155.15,915.37,389.67,696.59,549,402.51,763.17,50,654.1-.07,982"/></svg>