<svg id="Layer_1" data-name="Layer 1" xmlns="http://www.w3.org/2000/svg" viewBox="0 0 1850.52 552.05"><defs><style>.cls-1{fill:#c14e0e;}.cls-2{fill:none;stroke:#c14e0e;stroke-miterlimit:10;stroke-width:2px;}</style></defs><path class="cls-1" d="M1078.45,373.62h-14.06l-4.36,6.73h-2.88l16.55-25.18h2.63l6.48,25.18h-2.67Zm-.5-2.15-3.42-13.6-8.78,13.6Z"/><path class="cls-1" d="M1091.77,353.66h2.55L1089,380.35h-2.55Z"/><path class="cls-1" d="M1113.37,362.26a6.94,6.94,0,0,1,2.93,2.77,8.26,8.26,0,0,1,1,4.24,12,12,0,0,1-1.39,5.78,10.32,10.32,0,0,1-3.83,4,10.57,10.57,0,0,1-5.51,1.45,8.75,8.75,0,0,1-4.58-1.11,6.2,6.2,0,0,1-2.65-3.2l-.82,4.13h-2.45l5.32-26.69H1104l-2.12,10.61a9.35,9.35,0,0,1,3.18-2.21,10.06,10.06,0,0,1,4-.78A9.24,9.24,0,0,1,1113.37,362.26Zm-2.59,14.87a7.81,7.81,0,0,0,2.91-3.14,9.66,9.66,0,0,0,1.07-4.57,5.72,5.72,0,0,0-1.64-4.34,6.39,6.39,0,0,0-4.59-1.57,7.8,7.8,0,0,0-7.1,4.3,9.77,9.77,0,0,0-1.07,4.59,5.66,5.66,0,0,0,1.64,4.32,6.42,6.42,0,0,0,4.59,1.55A7.84,7.84,0,0,0,1110.78,377.13Z"/><path class="cls-1" d="M1122.89,371.61a4.84,4.84,0,0,0,0,.76,5.65,5.65,0,0,0,1.64,4.38,6.93,6.93,0,0,0,4.87,1.52,9.68,9.68,0,0,0,3.51-.63,7,7,0,0,0,2.68-1.75l1.15,1.84a9.2,9.2,0,0,1-3.32,2.07,12.22,12.22,0,0,1-4.23.73,9.19,9.19,0,0,1-6.46-2.16,7.59,7.59,0,0,1-2.36-5.9,12.07,12.07,0,0,1,1.35-5.72,10.09,10.09,0,0,1,9.12-5.47,8.35,8.35,0,0,1,6,2.14,7.77,7.77,0,0,1,2.23,5.89,11.67,11.67,0,0,1-.25,2.3Zm3-6.48a8.47,8.47,0,0,0-2.73,4.57h13.49a4,4,0,0,0,0-.68,5.26,5.26,0,0,0-1.62-4.12,6.22,6.22,0,0,0-4.32-1.46A7.37,7.37,0,0,0,1125.87,365.13Z"/><path class="cls-1" d="M1151,362.17a10.89,10.89,0,0,1,4.61-.89l-.47,2.49-.72,0a7.25,7.25,0,0,0-5,1.76,9.17,9.17,0,0,0-2.64,5.26l-1.91,9.6h-2.56l3.75-18.92h2.44l-.65,3.45A7.71,7.71,0,0,1,1151,362.17Z"/><path class="cls-1" d="M1161.31,374.63a9.59,9.59,0,0,0-.14,1.19q0,2.52,2.73,2.52a4.81,4.81,0,0,0,2.92-1l.61,1.94a6.77,6.77,0,0,1-4.21,1.22,4.71,4.71,0,0,1-3.36-1.15,4.1,4.1,0,0,1-1.25-3.16,6.94,6.94,0,0,1,.15-1.48l2.19-11.15h-3.34l.39-2.16h3.38l.83-4.14h2.56l-.83,4.14h5.76l-.44,2.16h-5.75Z"/><path class="cls-1" d="M1207.83,355.17l-5,25.18h-2.16l-12.06-20.86-4.17,20.86h-2.63l5-25.18H1189L1201,376l4.18-20.87Z"/><path class="cls-1" d="M1212.87,371.61a6.5,6.5,0,0,0,0,.76,5.65,5.65,0,0,0,1.64,4.38,7,7,0,0,0,4.88,1.52,9.66,9.66,0,0,0,3.5-.63,6.91,6.91,0,0,0,2.68-1.75l1.16,1.84a9.33,9.33,0,0,1-3.33,2.07,12.13,12.13,0,0,1-4.23.73,9.2,9.2,0,0,1-6.46-2.16,7.58,7.58,0,0,1-2.35-5.9,12.18,12.18,0,0,1,1.34-5.72,10.12,10.12,0,0,1,9.13-5.47,8.33,8.33,0,0,1,6,2.14,7.77,7.77,0,0,1,2.23,5.89,11.67,11.67,0,0,1-.25,2.3Zm3-6.48a8.42,8.42,0,0,0-2.74,4.57h13.49a4,4,0,0,0,0-.68,5.26,5.26,0,0,0-1.62-4.12,6.22,6.22,0,0,0-4.32-1.46A7.33,7.33,0,0,0,1215.86,365.13Z"/><path class="cls-1" d="M1240.93,362.17a10.89,10.89,0,0,1,4.61-.89l-.47,2.49-.72,0a7.25,7.25,0,0,0-5,1.76,9.17,9.17,0,0,0-2.64,5.26l-1.91,9.6h-2.55l3.74-18.92h2.45l-.65,3.45A7.69,7.69,0,0,1,1240.93,362.17Z"/><path class="cls-1" d="M1257.3,369.24l6.8,11.11h-3l-5.83-9.57-5.29,4.1-1.08,5.47h-2.55l5.32-26.69h2.56l-3.6,17.95,13-10.18h3.64Z"/><path class="cls-1" d="M1269.21,371.61a7,7,0,0,0,0,.76,5.65,5.65,0,0,0,1.63,4.38,7,7,0,0,0,4.88,1.52,9.68,9.68,0,0,0,3.51-.63,7.06,7.06,0,0,0,2.68-1.75l1.15,1.84a9.33,9.33,0,0,1-3.33,2.07,12.13,12.13,0,0,1-4.23.73,9.18,9.18,0,0,1-6.45-2.16,7.55,7.55,0,0,1-2.36-5.9,12.07,12.07,0,0,1,1.35-5.72,10.09,10.09,0,0,1,9.12-5.47,8.35,8.35,0,0,1,6,2.14,7.81,7.81,0,0,1,2.23,5.89,12.48,12.48,0,0,1-.25,2.3Zm3-6.48a8.41,8.41,0,0,0-2.73,4.57H1283a5.89,5.89,0,0,0,0-.68,5.26,5.26,0,0,0-1.62-4.12,6.18,6.18,0,0,0-4.31-1.46A7.34,7.34,0,0,0,1272.2,365.13Z"/><path class="cls-1" d="M1306.54,362.92a5.82,5.82,0,0,1,1.78,4.52,12.11,12.11,0,0,1-.21,2.16L1306,380.35h-2.56l2.16-10.79a10.06,10.06,0,0,0,.18-1.73,4,4,0,0,0-1.24-3.15,5.36,5.36,0,0,0-3.65-1.09,7.51,7.51,0,0,0-5,1.67,8.47,8.47,0,0,0-2.66,4.95l-2,10.14h-2.55l3.74-18.92h2.45l-.61,3a9.23,9.23,0,0,1,7.41-3.17A7.1,7.1,0,0,1,1306.54,362.92Z"/><path class="cls-1" d="M1324.93,379.67a9.54,9.54,0,0,1-3.84-2.3l1.3-2.09a8.79,8.79,0,0,0,3.49,2.19,13,13,0,0,0,4.61.83,9.71,9.71,0,0,0,5.37-1.31,4.12,4.12,0,0,0,2-3.65,2.81,2.81,0,0,0-.76-2,5.48,5.48,0,0,0-1.91-1.28,29.21,29.21,0,0,0-3.13-1.06,34,34,0,0,1-3.79-1.32,6.5,6.5,0,0,1-2.48-1.87,4.84,4.84,0,0,1-1-3.22,6.54,6.54,0,0,1,1.28-4,8.06,8.06,0,0,1,3.56-2.63,14,14,0,0,1,5.23-.92,16.45,16.45,0,0,1,4.32.56,10.7,10.7,0,0,1,3.49,1.6l-1.11,2.16a10.14,10.14,0,0,0-3.13-1.53,12.94,12.94,0,0,0-3.71-.52,9.23,9.23,0,0,0-5.32,1.37,4.24,4.24,0,0,0-2,3.7,2.91,2.91,0,0,0,.79,2.12,5.69,5.69,0,0,0,2,1.32,31.48,31.48,0,0,0,3.15,1.06,33.25,33.25,0,0,1,3.78,1.31,6.84,6.84,0,0,1,2.45,1.8,4.57,4.57,0,0,1,1,3.08,6.47,6.47,0,0,1-1.31,4.08,8.23,8.23,0,0,1-3.63,2.61,14.74,14.74,0,0,1-5.35.9A15.74,15.74,0,0,1,1324.93,379.67Z"/><path class="cls-1" d="M1348.4,379.54a7.11,7.11,0,0,1-3-2.8,8.2,8.2,0,0,1-1.06-4.23,11.86,11.86,0,0,1,1.4-5.76,10.3,10.3,0,0,1,3.93-4,11.12,11.12,0,0,1,5.68-1.46,9.89,9.89,0,0,1,4.52,1,6.81,6.81,0,0,1,2.93,2.82l-2.16,1.26c-1.08-1.87-2.91-2.81-5.51-2.81a8,8,0,0,0-7.17,4.32,9.66,9.66,0,0,0-1.06,4.57,5.65,5.65,0,0,0,1.63,4.32,6.54,6.54,0,0,0,4.66,1.55,8.15,8.15,0,0,0,3.4-.71,6.35,6.35,0,0,0,2.57-2l1.84,1.41a8.54,8.54,0,0,1-3.36,2.64,10.86,10.86,0,0,1-4.56.95A10.26,10.26,0,0,1,1348.4,379.54Z"/><path class="cls-1" d="M1382.42,362.92a5.82,5.82,0,0,1,1.78,4.52,12.11,12.11,0,0,1-.21,2.16l-2.16,10.75h-2.56l2.16-10.79a10.06,10.06,0,0,0,.18-1.73,4,4,0,0,0-1.24-3.15,5.38,5.38,0,0,0-3.65-1.09,7.51,7.51,0,0,0-5,1.67,8.47,8.47,0,0,0-2.66,4.95l-2,10.14h-2.55l5.32-26.69h2.56l-2.12,10.61a9.13,9.13,0,0,1,7.23-3A7.1,7.1,0,0,1,1382.42,362.92Z"/><path class="cls-1" d="M1392.76,379.54a7.18,7.18,0,0,1-3-2.8,8.2,8.2,0,0,1-1.06-4.23,11.86,11.86,0,0,1,1.4-5.76,10.32,10.32,0,0,1,3.91-4,11,11,0,0,1,5.63-1.46,8.86,8.86,0,0,1,6.28,2.16,7.61,7.61,0,0,1,2.32,5.83,11.83,11.83,0,0,1-1.41,5.78,10.28,10.28,0,0,1-3.9,4,11,11,0,0,1-5.63,1.45A9.89,9.89,0,0,1,1392.76,379.54Zm8.93-2.41a7.92,7.92,0,0,0,2.93-3.16,9.69,9.69,0,0,0,1.06-4.55,5.68,5.68,0,0,0-1.64-4.34,6.38,6.38,0,0,0-4.58-1.57,7.9,7.9,0,0,0-7.14,4.34,9.67,9.67,0,0,0-1.07,4.55,5.66,5.66,0,0,0,1.64,4.32,6.42,6.42,0,0,0,4.59,1.55A7.93,7.93,0,0,0,1401.69,377.13Z"/><path class="cls-1" d="M1415.32,379.54a7.18,7.18,0,0,1-3-2.8,8.2,8.2,0,0,1-1.06-4.23,11.86,11.86,0,0,1,1.4-5.76,10.32,10.32,0,0,1,3.91-4,11,11,0,0,1,5.63-1.46,8.83,8.83,0,0,1,6.27,2.16,7.59,7.59,0,0,1,2.33,5.83,11.83,11.83,0,0,1-1.41,5.78,10.28,10.28,0,0,1-3.9,4,11,11,0,0,1-5.63,1.45A9.89,9.89,0,0,1,1415.32,379.54Zm8.93-2.41a7.92,7.92,0,0,0,2.93-3.16,9.69,9.69,0,0,0,1.06-4.55,5.72,5.72,0,0,0-1.64-4.34,6.38,6.38,0,0,0-4.58-1.57,7.84,7.84,0,0,0-4.21,1.16,8,8,0,0,0-2.94,3.18,9.78,9.78,0,0,0-1.06,4.55,5.66,5.66,0,0,0,1.64,4.32,6.42,6.42,0,0,0,4.59,1.55A7.93,7.93,0,0,0,1424.25,377.13Z"/><path class="cls-1" d="M1439.32,353.66h2.56l-5.33,26.69H1434Z"/><path class="cls-1" d="M1457,379.54a7.15,7.15,0,0,1-3-2.8,8.3,8.3,0,0,1-1.06-4.23,11.76,11.76,0,0,1,1.41-5.76,10.23,10.23,0,0,1,3.9-4,11,11,0,0,1,5.63-1.46,8.86,8.86,0,0,1,6.28,2.16,7.58,7.58,0,0,1,2.32,5.83,11.94,11.94,0,0,1-1.4,5.78,10.37,10.37,0,0,1-3.91,4,11,11,0,0,1-5.63,1.45A9.82,9.82,0,0,1,1457,379.54Zm8.92-2.41a7.78,7.78,0,0,0,2.93-3.16,9.69,9.69,0,0,0,1.06-4.55,5.72,5.72,0,0,0-1.63-4.34,6.39,6.39,0,0,0-4.59-1.57,7.86,7.86,0,0,0-4.21,1.16,8,8,0,0,0-2.93,3.18,9.66,9.66,0,0,0-1.06,4.55,5.65,5.65,0,0,0,1.63,4.32,6.42,6.42,0,0,0,4.59,1.55A7.93,7.93,0,0,0,1465.91,377.13Z"/><path class="cls-1" d="M1484.15,356.54a5.12,5.12,0,0,0-1.37,2.8l-.43,2.09h5.8l-.44,2.16H1482l-3.34,16.76h-2.56l3.35-16.76h-3.38l.39-2.16h3.42l.47-2.38a7.12,7.12,0,0,1,2.18-4.13,6.25,6.25,0,0,1,4.29-1.44,6.88,6.88,0,0,1,2.16.32,4.69,4.69,0,0,1,1.66.9l-1.12,1.87a3.89,3.89,0,0,0-2.7-.93A3.78,3.78,0,0,0,1484.15,356.54Z"/><path class="cls-1" d="M1505,357.47l-1.8,9h13.06l-.43,2.27h-13.06l-1.87,9.35h15.15l-.47,2.3h-17.78l5-25.18h17.27l-.47,2.3Z"/><path class="cls-1" d="M1539.33,362.92a5.86,5.86,0,0,1,1.78,4.52,12.17,12.17,0,0,1-.22,2.16l-2.16,10.75h-2.55l2.16-10.79a10.06,10.06,0,0,0,.18-1.73,4,4,0,0,0-1.24-3.15,5.39,5.39,0,0,0-3.66-1.09,7.47,7.47,0,0,0-5,1.67,8.53,8.53,0,0,0-2.67,4.95l-2,10.14h-2.56l3.75-18.92h2.44l-.61,3a9.23,9.23,0,0,1,7.41-3.17A7.11,7.11,0,0,1,1539.33,362.92Z"/><path class="cls-1" d="M1567.08,361.43l-3.31,16.62c-.64,3.31-1.86,5.72-3.65,7.21a11.1,11.1,0,0,1-7.36,2.25,14.75,14.75,0,0,1-4.8-.73,10.26,10.26,0,0,1-3.62-2.11l1.52-1.94a7.62,7.62,0,0,0,3,1.85,12.08,12.08,0,0,0,4.08.67,8.4,8.4,0,0,0,5.54-1.66,8.57,8.57,0,0,0,2.67-5.11l.43-2.08a9.46,9.46,0,0,1-3.29,2.39,10.6,10.6,0,0,1-4.27.84,8.71,8.71,0,0,1-6.06-2.05,7.1,7.1,0,0,1-2.28-5.57,10.92,10.92,0,0,1,1.38-5.47,10,10,0,0,1,3.85-3.85,11,11,0,0,1,5.56-1.41,9.29,9.29,0,0,1,4.64,1.1,6,6,0,0,1,2.74,3.22l.79-4.17Zm-8.33,14.86a7.64,7.64,0,0,0,3-3,8.63,8.63,0,0,0,1.07-4.28,5.12,5.12,0,0,0-1.66-4,6.73,6.73,0,0,0-4.6-1.46,8.44,8.44,0,0,0-4.25,1.08,7.66,7.66,0,0,0-2.93,3,8.63,8.63,0,0,0-1.06,4.28,5.12,5.12,0,0,0,1.65,4.05,6.74,6.74,0,0,0,4.61,1.46A8.34,8.34,0,0,0,1558.75,376.29Z"/><path class="cls-1" d="M1574.21,361.43h2.55L1573,380.35h-2.55Zm1.13-4.64a1.68,1.68,0,0,1-.49-1.19,1.9,1.9,0,0,1,2-1.94,1.74,1.74,0,0,1,1.26.48,1.53,1.53,0,0,1,.51,1.14,2,2,0,0,1-.58,1.43,1.92,1.92,0,0,1-1.44.58A1.67,1.67,0,0,1,1575.34,356.79Z"/><path class="cls-1" d="M1598.12,362.92a5.86,5.86,0,0,1,1.78,4.52,12.17,12.17,0,0,1-.22,2.16l-2.16,10.75H1595l2.16-10.79a10.06,10.06,0,0,0,.18-1.73,4,4,0,0,0-1.25-3.15,5.34,5.34,0,0,0-3.65-1.09,7.47,7.47,0,0,0-5,1.67,8.53,8.53,0,0,0-2.67,4.95l-2,10.14h-2.56l3.75-18.92h2.44l-.61,3a9.23,9.23,0,0,1,7.41-3.17A7.11,7.11,0,0,1,1598.12,362.92Z"/><path class="cls-1" d="M1607,371.61a4.84,4.84,0,0,0,0,.76,5.65,5.65,0,0,0,1.64,4.38,7,7,0,0,0,4.87,1.52,9.68,9.68,0,0,0,3.51-.63,7,7,0,0,0,2.68-1.75l1.15,1.84a9.2,9.2,0,0,1-3.32,2.07,12.18,12.18,0,0,1-4.23.73,9.19,9.19,0,0,1-6.46-2.16,7.59,7.59,0,0,1-2.36-5.9,12.07,12.07,0,0,1,1.35-5.72,10.09,10.09,0,0,1,9.12-5.47,8.35,8.35,0,0,1,6,2.14,7.77,7.77,0,0,1,2.23,5.89,11.67,11.67,0,0,1-.25,2.3Zm3-6.48a8.47,8.47,0,0,0-2.73,4.57h13.49a4,4,0,0,0,0-.68,5.26,5.26,0,0,0-1.62-4.12,6.22,6.22,0,0,0-4.32-1.46A7.37,7.37,0,0,0,1609.93,365.13Z"/><path class="cls-1" d="M1628.68,371.61a6.5,6.5,0,0,0,0,.76,5.65,5.65,0,0,0,1.64,4.38,7,7,0,0,0,4.88,1.52,9.66,9.66,0,0,0,3.5-.63,7,7,0,0,0,2.68-1.75l1.16,1.84a9.33,9.33,0,0,1-3.33,2.07,12.13,12.13,0,0,1-4.23.73,9.2,9.2,0,0,1-6.46-2.16,7.59,7.59,0,0,1-2.36-5.9,12.07,12.07,0,0,1,1.35-5.72,10.12,10.12,0,0,1,9.12-5.47,8.33,8.33,0,0,1,6,2.14,7.77,7.77,0,0,1,2.23,5.89,11.67,11.67,0,0,1-.25,2.3Zm3-6.48a8.42,8.42,0,0,0-2.74,4.57h13.49a4,4,0,0,0,0-.68,5.26,5.26,0,0,0-1.62-4.12,6.22,6.22,0,0,0-4.32-1.46A7.33,7.33,0,0,0,1631.67,365.13Z"/><path class="cls-1" d="M1656.74,362.17a10.89,10.89,0,0,1,4.61-.89l-.47,2.49-.72,0a7.25,7.25,0,0,0-5,1.76,9.17,9.17,0,0,0-2.64,5.26l-1.91,9.6H1648l3.74-18.92h2.44l-.64,3.45A7.69,7.69,0,0,1,1656.74,362.17Z"/><path class="cls-1" d="M1665.92,361.43h2.55l-3.74,18.92h-2.55Zm1.13-4.64a1.68,1.68,0,0,1-.49-1.19,1.9,1.9,0,0,1,2-1.94,1.74,1.74,0,0,1,1.26.48,1.53,1.53,0,0,1,.51,1.14,2,2,0,0,1-.58,1.43,1.92,1.92,0,0,1-1.44.58A1.67,1.67,0,0,1,1667.05,356.79Z"/><path class="cls-1" d="M1689.83,362.92a5.86,5.86,0,0,1,1.78,4.52,12.17,12.17,0,0,1-.22,2.16l-2.16,10.75h-2.55l2.16-10.79a10.06,10.06,0,0,0,.18-1.73,4,4,0,0,0-1.25-3.15,5.34,5.34,0,0,0-3.65-1.09,7.47,7.47,0,0,0-5,1.67,8.53,8.53,0,0,0-2.67,4.95l-2,10.14h-2.56l3.75-18.92H1678l-.61,3a9.23,9.23,0,0,1,7.41-3.17A7.11,7.11,0,0,1,1689.83,362.92Z"/><path class="cls-1" d="M1717.58,361.43l-3.31,16.62c-.64,3.31-1.86,5.72-3.65,7.21a11.1,11.1,0,0,1-7.36,2.25,14.75,14.75,0,0,1-4.8-.73,10.26,10.26,0,0,1-3.62-2.11l1.52-1.94a7.62,7.62,0,0,0,3,1.85,12.08,12.08,0,0,0,4.08.67,8.4,8.4,0,0,0,5.54-1.66,8.57,8.57,0,0,0,2.67-5.11l.43-2.08a9.46,9.46,0,0,1-3.29,2.39,10.6,10.6,0,0,1-4.27.84,8.71,8.71,0,0,1-6.06-2.05,7.1,7.1,0,0,1-2.28-5.57,10.92,10.92,0,0,1,1.38-5.47,10,10,0,0,1,3.85-3.85,11,11,0,0,1,5.56-1.41,9.29,9.29,0,0,1,4.64,1.1,5.94,5.94,0,0,1,2.73,3.22l.8-4.17Zm-8.33,14.86a7.64,7.64,0,0,0,3-3,8.63,8.63,0,0,0,1.07-4.28,5.12,5.12,0,0,0-1.66-4,6.73,6.73,0,0,0-4.6-1.46,8.44,8.44,0,0,0-4.25,1.08,7.66,7.66,0,0,0-2.93,3,8.63,8.63,0,0,0-1.06,4.28,5.12,5.12,0,0,0,1.65,4.05,6.74,6.74,0,0,0,4.61,1.46A8.34,8.34,0,0,0,1709.25,376.29Z"/><path class="cls-1" d="M1435.68,402h-6.32v-3h16.17v3h-6.31v16.06h-3.54Z"/><path class="cls-1" d="M1465.14,399v19.06h-3.54v-8.17h-9.86v8.17h-3.54V399h3.54v7.87h9.86V399Z"/><path class="cls-1" d="M1484.55,415.12v3h-14.29V399h13.91v3H1473.8v5h9.2v2.91h-9.2v5.26Z"/><path class="cls-1" d="M1499.62,417.09a9.29,9.29,0,0,1-3.64-3.5,10.16,10.16,0,0,1,0-10.07,9.41,9.41,0,0,1,3.66-3.5,11.44,11.44,0,0,1,9.49-.45,8.62,8.62,0,0,1,3.27,2.37l-2.29,2.15a6.68,6.68,0,0,0-5.09-2.24,7.13,7.13,0,0,0-3.51.86,6.18,6.18,0,0,0-2.43,2.38,7.32,7.32,0,0,0,0,6.92,6.11,6.11,0,0,0,2.43,2.38,7,7,0,0,0,3.51.86,6.63,6.63,0,0,0,5.09-2.26l2.29,2.18a8.87,8.87,0,0,1-3.28,2.37,11.08,11.08,0,0,1-4.29.82A10.81,10.81,0,0,1,1499.62,417.09Z"/><path class="cls-1" d="M1519.05,417.09a9.32,9.32,0,0,1-3.67-3.51,10.09,10.09,0,0,1,0-10.05,9.26,9.26,0,0,1,3.67-3.51,11.51,11.51,0,0,1,10.51,0,9.39,9.39,0,0,1,3.68,3.5,10.2,10.2,0,0,1,0,10.07,9.39,9.39,0,0,1-3.68,3.5,11.51,11.51,0,0,1-10.51,0Zm8.69-2.7a6.24,6.24,0,0,0,2.39-2.39,7.18,7.18,0,0,0,0-6.89,6.19,6.19,0,0,0-2.39-2.4,7.27,7.27,0,0,0-6.86,0,6.15,6.15,0,0,0-2.4,2.4,7.26,7.26,0,0,0,0,6.89,6.19,6.19,0,0,0,2.4,2.39,7.27,7.27,0,0,0,6.86,0Z"/><path class="cls-1" d="M1542,417.09a9.42,9.42,0,0,1-3.68-3.51,10.16,10.16,0,0,1,0-10.05A9.35,9.35,0,0,1,1542,400a11.51,11.51,0,0,1,10.51,0,9.39,9.39,0,0,1,3.68,3.5,10.2,10.2,0,0,1,0,10.07,9.39,9.39,0,0,1-3.68,3.5,11.51,11.51,0,0,1-10.51,0Zm8.68-2.7a6.19,6.19,0,0,0,2.4-2.39,7.26,7.26,0,0,0,0-6.89,6.15,6.15,0,0,0-2.4-2.4,7.27,7.27,0,0,0-6.86,0,6.19,6.19,0,0,0-2.39,2.4,7.26,7.26,0,0,0,0,6.89,6.24,6.24,0,0,0,2.39,2.39,7.27,7.27,0,0,0,6.86,0Z"/><path class="cls-1" d="M1573.42,399.84a6.27,6.27,0,0,1,2.81,2.34,7.16,7.16,0,0,1,0,7.23,6.25,6.25,0,0,1-2.81,2.36,10.67,10.67,0,0,1-4.32.81h-4.3v5.5h-3.54V399h7.84A10.5,10.5,0,0,1,1573.42,399.84Zm-1,8.77a3.88,3.88,0,0,0,0-5.61,5.4,5.4,0,0,0-3.51-1h-4.14v7.57h4.14A5.46,5.46,0,0,0,1572.45,408.61Z"/><path class="cls-1" d="M1595.05,415.12v3h-14.3V399h13.92v3h-10.38v5h9.21v2.91h-9.21v5.26Z"/><path class="cls-1" d="M1611.47,418.08l-3.9-5.58a6.41,6.41,0,0,1-.73,0h-4.3v5.55H1599V399h7.84a10.5,10.5,0,0,1,4.32.82,6.27,6.27,0,0,1,2.81,2.34,7.16,7.16,0,0,1-.06,7.33,6.31,6.31,0,0,1-3,2.31l4.38,6.26ZM1610.19,403a5.4,5.4,0,0,0-3.51-1h-4.14v7.6h4.14a5.4,5.4,0,0,0,3.51-1,3.45,3.45,0,0,0,1.2-2.82A3.41,3.41,0,0,0,1610.19,403Z"/><path class="cls-1" d="M1628.46,416.14a8.64,8.64,0,0,1-2.21-6.36V399h3.54v10.62q0,5.61,4.85,5.61t4.82-5.61V399h3.48v10.76a8.68,8.68,0,0,1-2.19,6.36,9.61,9.61,0,0,1-12.29,0Z"/><path class="cls-1" d="M1664.84,399v19.06h-2.92l-10.51-12.9v12.9h-3.51V399h2.91l10.51,12.91V399Z"/><path class="cls-1" d="M1670,399h3.54v19.06H1670Z"/><path class="cls-1" d="M1682.29,417.09a9.42,9.42,0,0,1-3.68-3.51,10.16,10.16,0,0,1,0-10.05,9.35,9.35,0,0,1,3.68-3.51,11.51,11.51,0,0,1,10.51,0,9.39,9.39,0,0,1,3.68,3.5,10.2,10.2,0,0,1,0,10.07,9.39,9.39,0,0,1-3.68,3.5,11.51,11.51,0,0,1-10.51,0Zm8.69-2.7a6.24,6.24,0,0,0,2.39-2.39,7.26,7.26,0,0,0,0-6.89,6.19,6.19,0,0,0-2.39-2.4,7.29,7.29,0,0,0-6.87,0,6.19,6.19,0,0,0-2.39,2.4,7.26,7.26,0,0,0,0,6.89,6.24,6.24,0,0,0,2.39,2.39,7.29,7.29,0,0,0,6.87,0Z"/><path class="cls-1" d="M1718.51,399v19.06h-2.92l-10.51-12.9v12.9h-3.51V399h2.91L1715,411.93V399Z"/><path class="cls-2" d="M316.36,368.62v59.26H78.88V380.75L200.09,266.27q19.31-18.4,26-31.65a57.52,57.52,0,0,0,6.73-26.26q0-18.86-12.79-29t-37.49-10.1q-20.64,0-37.26,7.86a71.42,71.42,0,0,0-27.83,23.57l-53-34.12q18.41-27.37,50.73-42.87t74.07-15.49q35,0,61.28,11.45T291.45,152Q306,172.9,306,201.18a109.44,109.44,0,0,1-10.78,48q-10.77,22.46-41.75,51.18l-72.27,68.23Z"/><path class="cls-2" d="M410.64,414q-30.54-19.31-47.81-55.89t-17.29-87.32q0-50.73,17.29-87.32t47.81-55.89q30.51-19.29,69.58-19.3t69.58,19.3q30.53,19.3,47.81,55.89t17.29,87.32q0,50.73-17.29,87.32T549.8,414q-30.52,19.3-69.58,19.3T410.64,414Zm114.7-66.89q16.38-24.69,16.38-76.32t-16.38-76.32q-16.4-24.67-45.12-24.69-28.29,0-44.67,24.69t-16.38,76.32q0,51.63,16.38,76.32t44.67,24.69Q508.95,371.77,525.34,347.08Z"/><path class="cls-2" d="M882.45,368.62v59.26H645V380.75L766.18,266.27q19.29-18.4,26-31.65A57.64,57.64,0,0,0,799,208.36q0-18.86-12.8-29t-37.48-10.1q-20.65,0-37.26,7.86a71.28,71.28,0,0,0-27.83,23.57l-53-34.12q18.4-27.37,50.73-42.87t74.07-15.49q35,0,61.28,11.45T857.53,152q14.6,20.88,14.59,49.16a109.57,109.57,0,0,1-10.77,48q-10.77,22.46-41.75,51.18l-72.28,68.23Z"/><path class="cls-2" d="M1033.73,113.64V427.88H961V172H898.16V113.64Z"/><path class="cls-1" d="M168.34,336.37H72.72v-1.56a32.31,32.31,0,0,0,7.26-2,14.88,14.88,0,0,0,5.55-3.91,7,7,0,0,0,1.25-2.73c.31-1.2.6-2.58.86-4.14a49.51,49.51,0,0,0,.55-4.93c.1-1.71.15-3.41.15-5.07q0-2.19.08-5.94t.16-8.2q.08-4.46.07-9.14V249.19c0-1.88,0-3.8-.07-5.78s-.16-3.85-.32-5.63a28,28,0,0,0-.78-4.76A6.67,6.67,0,0,0,86,230a10.7,10.7,0,0,0-5-3.2,65.16,65.16,0,0,0-6.88-1.33v-1.56h86.25L171,249.66l-1.56.78q-12.66-15.78-23.75-21.25-2.66-1.24-9.84-2.19a139.39,139.39,0,0,0-17.5-.93c-2.19,0-4.45.07-6.8.23a44.05,44.05,0,0,0-5.07.55c-.21,1.66-.4,5.1-.55,10.31s-.24,11.25-.24,18.12v10q0,4.07.08,6.64c0,1.72.08,3.05.08,4v1.71H109c1.56,0,3.35-.05,5.39-.15s4.06-.24,6.09-.39a34.65,34.65,0,0,0,5.08-.71,27,27,0,0,0,7.81-3,17.31,17.31,0,0,0,5.08-4.53,22.27,22.27,0,0,0,3.12-6.18,72.93,72.93,0,0,0,2.11-7.89h1.88V304h-1.88a53.05,53.05,0,0,0-3.83-10.31,27.35,27.35,0,0,0-5.39-8,20.58,20.58,0,0,0-6-3.59,26.91,26.91,0,0,0-8.21-1.72c-1.56-.11-2.86-.18-3.9-.24s-2.09-.08-3.13-.08H106a48.4,48.4,0,0,0-.32,6.41v18.75c0,1.67,0,3.26.08,4.76s.08,2.79.08,3.83c.1,3.34.29,6.49.55,9.45a15,15,0,0,0,1.79,6.64q1.41,2.19,6.72,3.13a67.14,67.14,0,0,0,11.56.94c1.77,0,4-.06,6.8-.16a85.51,85.51,0,0,0,8.67-.78,34.31,34.31,0,0,0,9.22-2.42,32.32,32.32,0,0,0,8.12-5.08,51.31,51.31,0,0,0,7.58-8,106.9,106.9,0,0,0,7.58-11.48l1.72.47Z"/><path class="cls-1" d="M300.28,228.41a13.86,13.86,0,0,0-5.39,6.72q-1.09,2.34-1.41,8.67t-.62,13.51q-.32,6.72-.55,15.86t-.23,19.61v10q0,5.48.07,11.17c.06,3.8.08,7.58.08,11.33v10.15a1.38,1.38,0,0,1-.39,1,1.59,1.59,0,0,1-1.17.39,4.31,4.31,0,0,1-2.81-1.56Q274.57,320,263.64,307.15L242.78,282.7q-9.92-11.64-19.45-22.73t-20.15-23v65.93q0,8,.39,14.38t2,9.53a11.29,11.29,0,0,0,5.39,5.39A32.29,32.29,0,0,0,221,334.81v1.56H182.55v-1.56a30.12,30.12,0,0,0,7.5-2,12.12,12.12,0,0,0,5.94-4.92q2.19-3.27,2.81-9.68t.94-15.32q.31-6.71.47-15.85t.15-19.61V248.41c0-2.08-.05-4.64-.15-7.66a18,18,0,0,0-2.19-7.42A14.38,14.38,0,0,0,194,228.8a15.44,15.44,0,0,0-5.08-2.34,42.15,42.15,0,0,0-5.23-1v-1.56h31.71l74.06,86.55V257.31q0-6.24-.16-11.95a28.12,28.12,0,0,0-1.4-9,14.24,14.24,0,0,0-5.55-7.11q-4-2.73-11.48-3.83v-1.56h38.75v1.56A23.47,23.47,0,0,0,300.28,228.41Z"/><path class="cls-1" d="M439.72,299.19a50.37,50.37,0,0,1-7.65,15.31,45.26,45.26,0,0,1-11.25,10.62,61.48,61.48,0,0,1-13.6,6.72,74.41,74.41,0,0,1-14.84,3.51,112.32,112.32,0,0,1-14.84,1h-57v-1.56a27.73,27.73,0,0,0,7.58-2,14.75,14.75,0,0,0,5.55-3.75,5.28,5.28,0,0,0,1.17-2.66c.26-1.25.49-2.66.7-4.22s.37-3.23.47-5,.16-3.49.16-5.15q0-2.19.07-5.94t.16-8.2q.08-4.46.08-9.14V243.56c0-1.87-.08-3.61-.24-5.23a31.51,31.51,0,0,0-.7-4.37,7.21,7.21,0,0,0-1.4-3.05,12.3,12.3,0,0,0-5.63-3.91,37,37,0,0,0-7.34-1.56v-1.56q6.56,0,18.9-.08t29.84-.08h10q5.16,0,10.31.47a89.65,89.65,0,0,1,10.32,1.56A53.11,53.11,0,0,1,410.66,229,59.32,59.32,0,0,1,423,236.22a47.76,47.76,0,0,1,10.07,10.39A50.9,50.9,0,0,1,440,260.52a58,58,0,0,1,2.57,18A68.49,68.49,0,0,1,439.72,299.19Zm-19.21-38a56.61,56.61,0,0,0-7.82-15.55,50.13,50.13,0,0,0-11.87-11.79,36.69,36.69,0,0,0-15-6.25q-3.12-.63-6.87-1a91.47,91.47,0,0,0-9.22-.39c-1.25,0-2.61,0-4.06.08s-2.9.16-4.3.31-2.71.29-3.91.39a16.23,16.23,0,0,0-2.89.47q-.78,7.67-.93,21.09t-.16,32v18.28q0,8.13.16,13.28c0,1.46.07,3.05.23,4.77s.34,3.38.55,5a20.17,20.17,0,0,0,1,4.37,7.79,7.79,0,0,0,1.64,2.89,14.4,14.4,0,0,0,7.89,4,51,51,0,0,0,9,.86q3.9,0,8-.39a39.18,39.18,0,0,0,7.74-1.49q16.88-4.84,25.23-18.83t8.36-34.45A56.53,56.53,0,0,0,420.51,261.22Z"/><path class="cls-1" d="M597.05,302.47a58,58,0,0,1-12.73,18.43,56.25,56.25,0,0,1-18.75,12,63.27,63.27,0,0,1-45.23.08,56.15,56.15,0,0,1-18.59-11.72,55,55,0,0,1-12.58-18.12,61.66,61.66,0,0,1,.23-47.34,54.23,54.23,0,0,1,13.05-18.12,57.4,57.4,0,0,1,19.22-11.41,67.54,67.54,0,0,1,23.2-4A58.13,58.13,0,0,1,568.69,227a54.06,54.06,0,0,1,17.89,12.58,55,55,0,0,1,11.25,18.2,60.25,60.25,0,0,1,3.91,21.56A56.59,56.59,0,0,1,597.05,302.47Zm-17.11-42.19a60.68,60.68,0,0,0-7.34-17.57,41.89,41.89,0,0,0-12.26-12.82A30.45,30.45,0,0,0,543,225a31,31,0,0,0-17.57,4.92,40.15,40.15,0,0,0-12.19,12.74,59,59,0,0,0-7,17.73,90,90,0,0,0-2.27,20.08,83.09,83.09,0,0,0,2.5,20.46,56.92,56.92,0,0,0,7.42,17.35,38.93,38.93,0,0,0,12.35,12,32.44,32.44,0,0,0,17.26,4.53,29.46,29.46,0,0,0,17.11-5,42.25,42.25,0,0,0,12.11-12.89,61.77,61.77,0,0,0,7.26-17.73,82,82,0,0,0,2.43-19.69A78.8,78.8,0,0,0,579.94,260.28Z"/><path class="cls-1" d="M710,250.91a150.86,150.86,0,0,0-12.18-13.6A44.71,44.71,0,0,0,686.58,229q-2.67-1.25-9.61-2.11a134.38,134.38,0,0,0-16.17-.85c-1,0-2.24,0-3.6.07l-3.9.16-3.52.16c-1.09,0-1.9.07-2.42.07-.1.63-.23,1.25-.39,1.88a16.83,16.83,0,0,0-.39,2.19c-.11.83-.21,1.9-.31,3.2s-.21,2.89-.32,4.76q-.15,5.48-.23,12t-.08,12.26v14.84h2.81q2.5,0,5.55-.15c2-.1,4.14-.24,6.33-.39a39.82,39.82,0,0,0,5.47-.71,28.83,28.83,0,0,0,8.9-3.28,16.49,16.49,0,0,0,5.16-4.84,18.55,18.55,0,0,0,2.65-6.17q.78-3.36,1.41-7.27h1.88v50.31h-1.88a71.88,71.88,0,0,0-3.59-10.54,23.85,23.85,0,0,0-5.63-8.52,21.05,21.05,0,0,0-6.33-4,26.32,26.32,0,0,0-7.89-1.64c-1.56-.11-2.91-.18-4.06-.24s-2.24-.08-3.28-.08h-7.5V299.5q0,4.38.08,8t.08,6.33q.15,5,.54,9.45a14.88,14.88,0,0,0,1.8,6.64,8.88,8.88,0,0,0,4.77,3.36,36.73,36.73,0,0,0,9.76,1.49v1.56h-50v-1.56a32.31,32.31,0,0,0,7.26-2,14.88,14.88,0,0,0,5.55-3.91,7.17,7.17,0,0,0,1.25-2.73c.31-1.2.6-2.58.86-4.14a49.57,49.57,0,0,0,.54-4.93c.11-1.71.16-3.41.16-5.07,0-1.46,0-3.44.08-5.94s.1-5.23.15-8.2.08-6,.08-9.14V249.19c0-1.88,0-3.8-.08-5.78s-.15-3.85-.31-5.63a30.12,30.12,0,0,0-.78-4.76A6.77,6.77,0,0,0,626,230a10.75,10.75,0,0,0-5-3.2,66.2,66.2,0,0,0-6.88-1.33v-1.56H701l10.62,26.25Z"/><path class="cls-1" d="M840.63,227.63a24.24,24.24,0,0,0-5.79,4.06,38.83,38.83,0,0,0-5.07,5.94q-2.43,3.44-5.24,7.81-1.87,3-5.23,8.05T812.42,264q-3.51,5.48-6.79,10.47t-5.16,7.81v31.4q0,4.55.24,8.83c.15,2.87.65,4.87,1.48,6a10.93,10.93,0,0,0,6.09,4.53,72.1,72.1,0,0,0,7.19,1.72v1.56H767.35v-1.56a35,35,0,0,0,7.11-1.49q3-1,6.48-4.92a5.24,5.24,0,0,0,1.17-2.65,41.86,41.86,0,0,0,.63-4.22c.15-1.57.26-3.23.31-5s.08-3.49.08-5.16c.1-2.91.18-6.38.23-10.39s.08-8.88.08-14.61c-.21-.31-.83-1.3-1.87-3s-2.32-3.73-3.83-6.18-3.18-5.18-5-8.2-3.62-6-5.39-8.83-3.44-5.54-5-8-2.87-4.53-3.91-6.1q-3-4.53-5.39-8.28a44.09,44.09,0,0,0-4.92-6.4,27.19,27.19,0,0,0-4.92-4.22,11,11,0,0,0-5.55-1.72v-1.56H785v1.56c-1.56.1-3.12.26-4.68.47a23,23,0,0,0-4.38,1,9.1,9.1,0,0,0-3.28,1.88,4.19,4.19,0,0,0-1.25,3.2q0,2,2.27,6.17t4.76,8.36c1.15,1.88,2.5,4.14,4.06,6.8s3.29,5.47,5.16,8.44,3.77,6,5.7,9.14,3.73,6.09,5.39,8.9q2-3,5-7.58t6-9.37q3-4.77,5.78-9.14t4.14-6.88c.52-.83,1.09-1.79,1.72-2.88s1.22-2.24,1.79-3.44a31.34,31.34,0,0,0,1.49-3.67,11.15,11.15,0,0,0,.62-3.44,5.65,5.65,0,0,0-1.25-3.91,8.39,8.39,0,0,0-3.2-2.18,20,20,0,0,0-4.3-1.18c-1.56-.26-3.07-.49-4.53-.7v-1.56h36.09v1.56A24.58,24.58,0,0,0,840.63,227.63Z"/><path class="cls-1" d="M945,336.37H849.37v-1.56a32.39,32.39,0,0,0,7.27-2,14.84,14.84,0,0,0,5.54-3.91,7,7,0,0,0,1.25-2.73c.32-1.2.6-2.58.86-4.14a49.51,49.51,0,0,0,.55-4.93c.1-1.71.16-3.41.16-5.07q0-2.19.07-5.94t.16-8.2q.07-4.46.08-9.14V249.19c0-1.88,0-3.8-.08-5.78s-.16-3.85-.31-5.63a30.12,30.12,0,0,0-.78-4.76,6.67,6.67,0,0,0-1.49-3.05,10.7,10.7,0,0,0-5-3.2,65.42,65.42,0,0,0-6.87-1.33v-1.56H937l10.63,25.78-1.57.78q-12.65-15.78-23.74-21.25-2.67-1.24-9.85-2.19a139.28,139.28,0,0,0-17.5-.93c-2.18,0-4.45.07-6.79.23a44,44,0,0,0-5.08.55q-.32,2.49-.55,10.31t-.23,18.12v10c0,2.71,0,4.92.08,6.64s.07,3.05.07,4v1.71h3.13c1.56,0,3.36-.05,5.39-.15s4.06-.24,6.09-.39a34.46,34.46,0,0,0,5.08-.71,26.83,26.83,0,0,0,7.81-3,17.06,17.06,0,0,0,5.08-4.53,22.56,22.56,0,0,0,3.13-6.18,73,73,0,0,0,2.1-7.89h1.88V304H920.3a53,53,0,0,0-3.82-10.31,27.55,27.55,0,0,0-5.39-8,20.64,20.64,0,0,0-6-3.59,26.84,26.84,0,0,0-8.2-1.72c-1.56-.11-2.87-.18-3.91-.24s-2.08-.08-3.12-.08h-7.19a48.76,48.76,0,0,0-.31,6.41v18.75c0,1.67,0,3.26.08,4.76s.07,2.79.07,3.83q.16,5,.55,9.45a14.88,14.88,0,0,0,1.8,6.64c.94,1.46,3.17,2.5,6.72,3.13a67.05,67.05,0,0,0,11.56.94c1.77,0,4-.06,6.79-.16a86,86,0,0,0,8.68-.78,34.24,34.24,0,0,0,9.21-2.42,32.37,32.37,0,0,0,8.13-5.08,51.78,51.78,0,0,0,7.58-8,106.94,106.94,0,0,0,7.57-11.48l1.72.47Z"/><path class="cls-1" d="M1023.42,336.37v-1.56a18.21,18.21,0,0,0,2.27-.31,19.33,19.33,0,0,0,3.75-1.1,10.7,10.7,0,0,0,3.43-2.19,4.71,4.71,0,0,0,1.49-3.59,20.7,20.7,0,0,0-.86-4.61c-.57-2.13-1.38-4.74-2.42-7.81s-2.24-6.48-3.6-10.23-2.81-7.66-4.37-11.72H981.55q-2.34,5.94-4.53,11.33t-4.38,10.85q-3.27,8.44-3.28,11.88a4.74,4.74,0,0,0,1.25,3.36,9.72,9.72,0,0,0,3.21,2.18A17.16,17.16,0,0,0,978,334.1c1.51.27,3,.5,4.3.71v1.56H949.05v-1.72a17.29,17.29,0,0,0,7-2.19,15.16,15.16,0,0,0,3.35-2.34A34.11,34.11,0,0,0,963,325a113.39,113.39,0,0,0,6.09-12q3.29-7.33,7.34-16.71t8.36-19.3q4.31-9.92,8.52-20t8-18.82l-1.57-3.44a25,25,0,0,0,5.08-3,30.51,30.51,0,0,0,4-3.59,33.74,33.74,0,0,0,2.89-3.6c.78-1.14,1.38-2.08,1.79-2.81h1.25q4.85,13,9.22,24.61t8.36,22.42q4,10.78,7.73,20.86t7.5,19.92c1.15,3.23,2.21,5.91,3.21,8s2.11,4.56,3.35,7.27a21.09,21.09,0,0,0,1.41,2.19,20.06,20.06,0,0,0,2.89,3.2,17.82,17.82,0,0,0,4.45,2.89,16.43,16.43,0,0,0,6.25,1.41v1.87ZM1003,241.69c-.62,1.35-1.53,3.49-2.73,6.4s-2.68,6.46-4.45,10.63-3.73,8.88-5.86,14.14L983,290h38.9q-2.65-7-5.39-14.06t-5.31-13.52q-2.58-6.48-4.69-11.87T1003,241.69Z"/><path class="cls-1" d="M1156.54,336.37c-.94-.94-1.62-1.64-2-2.11s-.89-1-1.41-1.64a30.77,30.77,0,0,1-1.95-2.73c-.79-1.2-2-3-3.68-5.39q-3-4.38-5.23-7.89c-1.51-2.35-3-4.66-4.61-7s-3.25-4.61-5.08-6.95-4-5-6.48-7.89a64.44,64.44,0,0,0-6.8-6.72,16.81,16.81,0,0,0-7.73-3.9,23.75,23.75,0,0,0-4.53-.63c-.94,0-2.14-.05-3.59-.15v17.65q0,7.5.15,12.65c.1,3.34.21,6.2.31,8.6a11.5,11.5,0,0,0,1.72,5.94,13.91,13.91,0,0,0,4.85,4.14q3.58,2.1,10,2.42v1.56h-50v-1.56a43.78,43.78,0,0,0,7.5-1.88,12.14,12.14,0,0,0,5.62-3.75,7,7,0,0,0,1.25-2.81,29.15,29.15,0,0,0,.71-4.22c.15-1.56.28-3.23.39-5s.15-3.49.15-5.15q0-2.19.08-5.94t.16-8.2q.07-4.46.08-9.14V249.19c0-1.88,0-3.78-.08-5.7s-.16-3.75-.32-5.47a28.13,28.13,0,0,0-.78-4.69,6.67,6.67,0,0,0-1.48-3.05,11.87,11.87,0,0,0-5.23-3.36,53.56,53.56,0,0,0-7.11-1.48v-1.56h6.4q5.31,0,12-.08t13.44-.08h10.94q10.46,0,18.59.63a37,37,0,0,1,14.84,4.22,30,30,0,0,1,11.09,9.76q4.23,6.18,4.22,15.55a24.67,24.67,0,0,1-2.11,10.39,27.58,27.58,0,0,1-5.62,8.12,34.82,34.82,0,0,1-8.2,6,63.86,63.86,0,0,1-9.85,4.21v.47a20.21,20.21,0,0,1,5.16,4.06,58.18,58.18,0,0,1,4.84,5.94q4.06,5.94,8.83,12.81t8.51,12.19q5.79,8.13,11.25,11.87a30.22,30.22,0,0,0,12.82,4.85v1.56ZM1141.07,239a27,27,0,0,0-11.41-9.68,33.75,33.75,0,0,0-7.89-2.5,46.76,46.76,0,0,0-8.67-.78q-3.28,0-5.31.15c-1.35.11-2.4.21-3.12.31-.11.63-.21,1.18-.32,1.64a13.17,13.17,0,0,0-.23,1.8c-.06.73-.11,1.75-.16,3.05s-.13,3.15-.23,5.54q-.17,5.48-.24,12.35t-.07,13.28v17.18q6.4,0,11.95-.54a49.09,49.09,0,0,0,10.7-2.27,28.46,28.46,0,0,0,8.59-4.22,24.5,24.5,0,0,0,5.86-6,24.93,24.93,0,0,0,3.36-7.27,29.91,29.91,0,0,0,1.09-8.12A25.26,25.26,0,0,0,1141.07,239Z"/><path class="cls-1" d="M1300,319a30.27,30.27,0,0,1-8.44,10.15,35.62,35.62,0,0,1-12.89,6.25,62.38,62.38,0,0,1-16.4,2,79.65,79.65,0,0,1-13.13-.93,52.19,52.19,0,0,1-9.06-2.27,32.17,32.17,0,0,1-5.39-2.42,6.94,6.94,0,0,0-2.26-1.09c-.32,0-1,.62-2,1.87s-2,2.45-2.82,3.59h-1.4l-.47-31.09h1.56a49.51,49.51,0,0,0,3.59,8.2,67.4,67.4,0,0,0,4.77,7.5,42,42,0,0,0,5.47,6.18,27.06,27.06,0,0,0,5.54,4.06,44.74,44.74,0,0,0,7,2.81,27.49,27.49,0,0,0,8.44,1.41q11.56,0,18.75-6.33t7.19-17.11a19.32,19.32,0,0,0-1.41-7.66,18.09,18.09,0,0,0-3.83-5.7,23.32,23.32,0,0,0-5.7-4.14,62.1,62.1,0,0,0-7-3.12q-3.75-1.41-6.56-2.35c-1.88-.62-3.62-1.22-5.24-1.79s-3.28-1.15-5-1.72-3.77-1.33-6.17-2.27a33.86,33.86,0,0,1-7.81-4.29,31.89,31.89,0,0,1-6.56-6.41,32.38,32.38,0,0,1-4.53-8.12,26,26,0,0,1-1.72-9.46,31.82,31.82,0,0,1,3.08-14.53,29.64,29.64,0,0,1,8.28-10.15,35.11,35.11,0,0,1,12-6,51.54,51.54,0,0,1,14.29-2,53.47,53.47,0,0,1,12,1.17,47.84,47.84,0,0,1,8.21,2.58,28.35,28.35,0,0,1,4.84,2.58,10.42,10.42,0,0,0,1.8,1.17c.31,0,1-.63,2-1.88s1.9-2.5,2.73-3.75h1.72v28.91h-1.72a62.39,62.39,0,0,0-4.84-10.23,46.32,46.32,0,0,0-6.87-9.07,33.5,33.5,0,0,0-8.91-6.48,24.42,24.42,0,0,0-11.09-2.5,29.11,29.11,0,0,0-9.14,1.41,21.08,21.08,0,0,0-7.5,4.21,19.29,19.29,0,0,0-5,7,23.49,23.49,0,0,0-1.8,9.45q0,8.28,5,13.28a35.47,35.47,0,0,0,12.93,8q3.12,1.24,5.85,2.18c1.81.63,3.61,1.23,5.37,1.8s3.56,1.17,5.38,1.8,3.71,1.3,5.69,2q10.59,3.9,16.44,11.33t5.85,18.51A29,29,0,0,1,1300,319Z"/><path class="cls-1" d="M1395.27,336.37v-1.56a31.81,31.81,0,0,0,9.68-2.11c2.61-1.1,4.32-2.32,5.16-3.67a5.52,5.52,0,0,0,.55-1.88c.15-.94.28-2,.39-3.28s.18-2.55.23-3.91.08-2.65.08-3.9q.15-5.16.15-10.63V280.75H1349.8v33.59q0,4.53.16,8.75t1.4,5.94a11.74,11.74,0,0,0,5.32,4.06,23.63,23.63,0,0,0,6.71,1.72v1.56H1317.3v-1.56a33.38,33.38,0,0,0,7.5-2.11,14.14,14.14,0,0,0,5.47-3.67,6.36,6.36,0,0,0,1-2.58,35.93,35.93,0,0,0,.62-4.14c.16-1.56.29-3.26.39-5.08s.16-3.57.16-5.23c0-1.46,0-3.44.08-5.94s.1-5.23.15-8.2.08-6,.08-9.14V243.56c0-1.87-.08-3.61-.23-5.23a31.43,31.43,0,0,0-.71-4.37,7.21,7.21,0,0,0-1.4-3.05,12.42,12.42,0,0,0-5.39-3.83,31.75,31.75,0,0,0-7.27-1.64v-1.56h46.56v1.56a46.29,46.29,0,0,0-4.69.94,14.83,14.83,0,0,0-4.53,2,11.14,11.14,0,0,0-3.43,3.67,12.5,12.5,0,0,0-1.57,5.94q-.15,5.48-.23,11.8t-.08,12.1v15.78h61.71V252.47q0-4.07-.15-9.22c-.11-2-.24-4-.39-6.17a11.46,11.46,0,0,0-1.49-5.23c-1.87-2.82-4-4.56-6.4-5.24a31.54,31.54,0,0,0-7.19-1.17v-1.56h47v1.56a25.07,25.07,0,0,0-7.34,2.11,11.1,11.1,0,0,0-5.32,4.76,9.18,9.18,0,0,0-.93,3.05c-.21,1.31-.37,2.76-.47,4.38s-.16,3.25-.16,4.92v51.09c0,2.92,0,5.93.08,9.06s.08,6.56.08,10.31q0,4.53.23,8.36c.16,2.55.55,4.3,1.17,5.23a10.75,10.75,0,0,0,5.47,4.38,32.94,32.94,0,0,0,7.5,1.72v1.56Z"/><path class="cls-1" d="M1568.07,302.47a58,58,0,0,1-12.74,18.43,56,56,0,0,1-18.75,12,63.27,63.27,0,0,1-45.23.08,56.25,56.25,0,0,1-18.59-11.72,55.18,55.18,0,0,1-12.58-18.12,61.6,61.6,0,0,1,.24-47.34,54.06,54.06,0,0,1,13-18.12,57.49,57.49,0,0,1,19.22-11.41,67.58,67.58,0,0,1,23.2-4,58.18,58.18,0,0,1,23.83,4.68,54.27,54.27,0,0,1,17.89,12.58,55.3,55.3,0,0,1,11.25,18.2,60.46,60.46,0,0,1,3.9,21.56A56.75,56.75,0,0,1,1568.07,302.47ZM1551,260.28a60.7,60.7,0,0,0-7.35-17.57,41.89,41.89,0,0,0-12.26-12.82A30.44,30.44,0,0,0,1514,225a31.07,31.07,0,0,0-17.58,4.92,40.15,40.15,0,0,0-12.19,12.74,59,59,0,0,0-7,17.73,90,90,0,0,0-2.26,20.08,82.61,82.61,0,0,0,2.5,20.46,56.67,56.67,0,0,0,7.42,17.35,38.8,38.8,0,0,0,12.34,12,32.48,32.48,0,0,0,17.27,4.53,29.42,29.42,0,0,0,17.1-5,42.13,42.13,0,0,0,12.11-12.89,62.07,62.07,0,0,0,7.27-17.73,82.45,82.45,0,0,0,2.42-19.69A79.27,79.27,0,0,0,1551,260.28Z"/><path class="cls-1" d="M1730.16,227.63A16.14,16.14,0,0,0,1727,230c-.31.31-.78.84-1.41,1.56a28.8,28.8,0,0,0-2.18,3.05,41.7,41.7,0,0,0-2.66,5q-1.41,3-3,7.58-2.51,7.65-5.78,17t-6.64,19.14q-3.36,9.84-6.8,19.76t-6.4,18.83l-6.56,15H1684q-4.21-11.25-7.89-21.56t-7-19.84q-3.36-9.54-6.48-18.52t-6.41-17.73q-2.49,7.19-5.31,15.07t-5.62,16q-2.82,8.13-5.63,16t-5.47,15.24l-6.87,15.31h-1.87q-4.85-12.66-9.15-24.06T1608,290.83q-4-10.54-7.73-20.47t-7.5-19.77q-1.1-3-2-5.15c-.58-1.46-1.1-2.81-1.56-4.06s-1-2.45-1.49-3.6-1.09-2.34-1.72-3.59c-.31-.63-.75-1.41-1.33-2.34a11.6,11.6,0,0,0-2.42-2.74,16.66,16.66,0,0,0-3.75-2.34,14.88,14.88,0,0,0-5.62-1.17v-1.72H1617v1.56a18.44,18.44,0,0,0-2.66.31,20.21,20.21,0,0,0-3.9,1.1,9.46,9.46,0,0,0-3.52,2.34,5.87,5.87,0,0,0-1.48,4.22,29.16,29.16,0,0,0,1.64,6.48q1.64,5.09,4.29,12.35t5.86,15.85q3.21,8.6,6.41,17t6,15.62q2.82,7.26,4.53,11.95.48-1.25,2.35-6.48t4.68-13.13q2.82-7.89,6.25-17.81t6.88-20.7c-1.56-4.16-3-7.84-4.22-11s-2.6-6.28-4.06-9.3a21,21,0,0,0-1.64-2.66,13.34,13.34,0,0,0-2.81-2.73,15.86,15.86,0,0,0-4.46-2.19,24.18,24.18,0,0,0-6.4-1v-1.72h48.9v1.56c-.63.1-1.75.26-3.36.47a23.52,23.52,0,0,0-4.84,1.17,14.85,14.85,0,0,0-4.38,2.42,4.82,4.82,0,0,0-2,3.91,38,38,0,0,0,1.72,6.33q1.71,5.38,4.37,13.12t5.94,16.8q3.29,9.06,6.25,17.42t5.39,15c1.61,4.42,2.79,7.63,3.52,9.6.31-.72.85-2.26,1.64-4.6s1.77-5.21,3-8.6,2.5-7.16,3.91-11.33,2.81-8.4,4.22-12.73,2.81-8.64,4.22-13,2.68-8.36,3.82-12.11a60.75,60.75,0,0,0,2.5-10.46c.21-2.19.32-3.8.32-4.85a5.32,5.32,0,0,0-1.41-3.82,12,12,0,0,0-3.44-2.5,19.88,19.88,0,0,0-4.37-1.57,29.57,29.57,0,0,0-4.22-.7v-1.56h34.37v1.56A15.79,15.79,0,0,0,1730.16,227.63Z"/></svg>