<svg id="Layer_1" data-name="Layer 1" xmlns="http://www.w3.org/2000/svg" xmlns:xlink="http://www.w3.org/1999/xlink" viewBox="0 0 748 996"><defs><style>.cls-1{fill:url(#linear-gradient);}.cls-2{fill:url(#linear-gradient-2);}.cls-3{fill:url(#linear-gradient-3);}.cls-4{fill:url(#linear-gradient-4);}.cls-5{fill:url(#linear-gradient-5);}.cls-6{fill:url(#linear-gradient-6);}.cls-7{fill:url(#linear-gradient-7);}.cls-8{fill:url(#linear-gradient-8);}.cls-9{fill:url(#linear-gradient-9);}.cls-10{fill:url(#linear-gradient-10);}.cls-11{fill:url(#linear-gradient-11);}</style><linearGradient id="linear-gradient" x1="747.79" y1="469.31" x2="0.08" y2="469.31" gradientUnits="userSpaceOnUse"><stop offset="0" stop-color="#c14e0e"/><stop offset="0.2" stop-color="#c14e0e" stop-opacity="0.89"/><stop offset="0.62" stop-color="#c14e0e" stop-opacity="0.6"/><stop offset="1" stop-color="#c14e0e" stop-opacity="0.3"/></linearGradient><linearGradient id="linear-gradient-2" x1="747.79" y1="454.51" x2="43.03" y2="454.51" xlink:href="#linear-gradient"/><linearGradient id="linear-gradient-3" x1="747.79" y1="453.69" x2="57.85" y2="453.69" xlink:href="#linear-gradient"/><linearGradient id="linear-gradient-4" x1="747.79" y1="452.85" x2="72.49" y2="452.85" xlink:href="#linear-gradient"/><linearGradient id="linear-gradient-5" x1="747.79" y1="451.97" x2="86.95" y2="451.97" xlink:href="#linear-gradient"/><linearGradient id="linear-gradient-6" x1="747.79" y1="451.05" x2="101.25" y2="451.05" xlink:href="#linear-gradient"/><linearGradient id="linear-gradient-7" x1="753.1" y1="948.05" x2="736.15" y2="948.05" gradientUnits="userSpaceOnUse"><stop offset="0" stop-color="#c14e0e" stop-opacity="0.9"/><stop offset="0.23" stop-color="#c14e0e" stop-opacity="0.79"/><stop offset="0.71" stop-color="#c14e0e" stop-opacity="0.5"/><stop offset="1" stop-color="#c14e0e" stop-opacity="0.3"/></linearGradient><linearGradient id="linear-gradient-8" x1="747.79" y1="450.11" x2="115.39" y2="450.11" xlink:href="#linear-gradient"/><linearGradient id="linear-gradient-9" x1="747.79" y1="449.14" x2="129.39" y2="449.14" xlink:href="#linear-gradient"/><linearGradient id="linear-gradient-10" x1="747.79" y1="448.13" x2="143.22" y2="448.13" xlink:href="#linear-gradient"/><linearGradient id="linear-gradient-11" x1="747.79" y1="447.1" x2="156.92" y2="447.1" xlink:href="#linear-gradient"/></defs><path class="cls-1" d="M286.26,765.46c-64-68.73-95.13-178.08-95.13-334.28,0-83.79-15.78-163-46.89-235.33a542.18,542.18,0,0,0-124.38-179Q10.91,8.26,1.6.14H.08Q9.82,8.6,19.17,17.53A541.23,541.23,0,0,1,143.33,196.24c31,72.24,46.8,151.29,46.8,234.94,0,156.47,31.21,266,95.4,335,56.67,60.85,130.4,83.1,207.31,102.28,88.7,22.12,185.77,49.74,255,70.05v-1c-69.17-20.3-166.12-47.89-254.71-70C416.32,848.32,342.75,826.12,286.26,765.46Z"/><path class="cls-2" d="M531.83,850.77c-78.57-19.08-153.89-41.21-211.71-101.67-65.53-68.52-97.39-177.52-97.39-333.22,0-83.53-16.14-162.46-48-234.59A540.46,540.46,0,0,0,47.42,2.82L44.5.14H43l3.71,3.41A539.62,539.62,0,0,1,173.83,181.69c31.79,72,47.9,150.8,47.9,234.19,0,156,32,265.19,97.66,333.91,58,60.65,133.48,82.84,212.21,102,72.94,17.71,151.43,39,216.19,57.14v-1C683.07,889.69,604.69,868.47,531.83,850.77Z"/><path class="cls-3" d="M183.32,178.42c31.38,72.17,47.05,151.05,46.58,234.43C229,568.8,260.33,678.19,325.65,747.26c57.66,61,133,83.59,211.6,103.15,70.86,17.63,146.93,38.65,210.54,56.84v-1c-63.56-18.18-139.53-39.16-210.3-56.77C459,829.92,383.85,807.36,326.38,746.57c-65.13-68.88-96.37-178-95.48-333.72.47-83.52-15.23-162.53-46.66-234.83A540.32,540.32,0,0,0,59.3.14H57.85A539.36,539.36,0,0,1,183.32,178.42Z"/><path class="cls-4" d="M192.82,175.14c31,72.35,46.19,151.3,45.24,234.67C236.29,565.74,267,675.3,331.91,744.74c57.31,61.3,132.51,84.33,211,104.33,68.79,17.54,142.5,38.29,204.89,56.48v-1c-62.34-18.17-135.94-38.9-204.64-56.4-78.34-20-153.39-43-210.51-104.06-64.73-69.24-95.34-178.57-93.58-334.23.95-83.51-14.3-162.6-45.32-235.08A540.36,540.36,0,0,0,73.93.14H72.49A539.07,539.07,0,0,1,192.82,175.14Z"/><path class="cls-5" d="M202.31,171.86c30.56,72.52,45.33,151.56,43.91,234.91-2.65,155.92,27.43,265.64,92,335.44,56.95,61.62,132,85.08,210.39,105.53,66.74,17.41,138.1,37.9,199.23,56v-1c-61.08-18.14-132.33-38.59-199-56C470.59,826.36,395.67,803,338.9,741.53c-64.34-69.6-94.32-179.1-91.68-334.74,1.42-83.5-13.38-162.67-44-235.32A539.9,539.9,0,0,0,88.37.14H87A538.69,538.69,0,0,1,202.31,171.86Z"/><path class="cls-6" d="M254.39,403.74c-3.54,155.89,25.91,265.78,90,336C401,801.63,476,825.51,554.21,846.4,618.92,863.68,688,883.87,747.79,902v-1C688,882.85,619.08,862.69,554.47,845.44,476.37,824.58,401.59,800.75,345.16,739c-63.94-70-93.3-179.63-89.77-335.25,1.89-83.49-12.46-162.74-42.66-235.56A539.45,539.45,0,0,0,102.64.14h-1.39A538.62,538.62,0,0,1,211.81,168.58C242,241.27,256.28,320.39,254.39,403.74Z"/><path class="cls-7" d="M736.15,945.33l16.93,5.44,0-.08C752.77,950.58,746.74,948.66,736.15,945.33Z"/><path class="cls-8" d="M262.55,400.7C258.13,556.57,287,666.63,350.68,737.16c56.26,62.26,131.05,86.57,209.18,107.91,62.7,17.12,129.46,37,187.93,55V899c-58.41-18-125.07-37.85-187.66-54.94-78-21.29-152.63-45.55-208.7-107.61-63.55-70.33-92.29-180.16-87.88-335.76,2.37-83.47-11.54-162.81-41.32-235.8A539.21,539.21,0,0,0,116.76.14h-1.37A538.36,538.36,0,0,1,221.31,165.31C251,238.17,264.91,317.37,262.55,400.7Z"/><path class="cls-9" d="M357.69,734c-63.15-70.69-91.27-180.69-86-336.27,2.84-83.46-10.61-162.88-40-236A539,539,0,0,0,130.73.14h-1.34A538,538,0,0,1,230.8,162c29.32,73,42.75,152.31,39.91,235.64-5.3,155.85,22.91,266.07,86.23,337C412.84,797.22,487.5,822,565.52,843.73c60.69,16.94,125.2,36.52,182.27,54.41v-1c-57-17.87-121.41-37.41-182-54.32C487.92,821,413.41,796.35,357.69,734Z"/><path class="cls-10" d="M364,731.45c-62.75-71.06-90.25-181.22-84.08-336.78,3.32-83.45-9.68-163-38.64-236.29A538.88,538.88,0,0,0,144.56.14h-1.34A537.91,537.91,0,0,1,240.3,158.75c28.9,73.21,41.88,152.57,38.58,235.88-6.19,155.83,21.39,266.22,84.32,337.48,55.55,62.9,130.07,88.06,208,110.28,58.71,16.75,121,36,176.62,53.74v-1c-55.57-17.73-117.73-36.93-176.34-53.65C493.7,819.25,419.32,794.15,364,731.45Z"/><path class="cls-11" d="M287,391.6C280,547.41,306.93,658,369.46,729.58c55.2,63.23,129.59,88.81,207.36,111.48,56.74,16.53,116.81,35.42,171,53v-1c-54.09-17.55-114-36.4-170.69-52.9C499.47,817.47,425.23,792,370.21,728.93,307.86,657.51,281,547.18,288,391.64c3.78-83.44-8.77-163-37.31-236.53a538.87,538.87,0,0,0-92.5-155h-1.31A538.09,538.09,0,0,1,249.8,155.47C278.29,228.85,290.82,308.29,287,391.6Z"/></svg>